<?xml version="1.0" encoding="UTF-8"?>
<svg width="57px" height="56px" viewBox="0 0 57 56" version="1.1" xmlns="http://www.w3.org/2000/svg" xmlns:xlink="http://www.w3.org/1999/xlink">
    <!-- Generator: Sketch 60.1 (88133) - https://sketch.com -->
    <title>E-shape</title>
    <desc>Created with Sketch.</desc>
    <g  stroke="none" stroke-width="1" fill="none" fill-rule="evenodd">
        <g  transform="translate(-603.000000, -3499.000000)" fill="#3E3F3E" fill-rule="nonzero">
            <path d="M656.377218,3527.03717 C656.377218,3510.75752 645.463594,3499 630.804466,3499 C626.606918,3499 622.409371,3500.09823 618.663867,3502.10088 C614.98294,3504.16814 610.010461,3507.33363 610.656237,3512.24336 C611.043703,3515.08584 613.303921,3517.4115 616.145338,3517.79912 C618.599289,3518.18673 620.859507,3517.1531 622.280215,3515.34425 C624.411278,3512.95398 627.446428,3511.59735 631.191932,3511.59735 C637.58512,3511.59735 642.105556,3515.92566 643.332531,3521.86903 L608.91264,3521.86903 C606.45869,3521.86903 604.52136,3523.80708 604.456782,3526.26195 C604.456782,3526.52035 604.456782,3526.77876 604.456782,3527.03717 C604.456782,3542.47699 616.339071,3555.07434 630.998199,3555.07434 C638.230897,3555.07434 646.109371,3552.74867 651.92136,3547.12832 C654.246155,3544.86726 654.117,3541.24956 652.050515,3538.79469 C649.402831,3535.75841 645.399017,3536.21062 642.493022,3538.66549 C639.845338,3540.86195 636.422722,3542.54159 631.579398,3542.60619 C624.734166,3542.6708 617.630624,3538.21327 616.984848,3531.8177 L651.469316,3531.8177 C654.052423,3531.8177 656.377218,3529.87965 656.377218,3527.03717 Z" id="E-shape" transform="translate(630.417000, 3527.037168) rotate(-40.000000) translate(-630.417000, -3527.037168) "></path>
        </g>
    </g>
</svg>