<?xml version="1.0" encoding="UTF-8"?>
<svg width="77px" height="85px" viewBox="0 0 77 85" version="1.1" xmlns="http://www.w3.org/2000/svg" xmlns:xlink="http://www.w3.org/1999/xlink">
    <!-- Generator: Sketch 60.1 (88133) - https://sketch.com -->
    <title>H-shape</title>
    <desc>Created with Sketch.</desc>
    <g  stroke="none" stroke-width="1" fill="none" fill-rule="evenodd">
        <g  transform="translate(-501.000000, -3479.000000)" fill="#3E3F3E" fill-rule="nonzero">
            <path d="M569.208603,3491.87373 C569.208603,3488.38523 566.367186,3485.60736 562.750837,3485.73656 C559.392799,3485.86576 556.422226,3488.70824 556.422226,3492.00293 L556.422226,3514.61355 L522.777267,3514.61355 L522.777267,3492.00293 C522.777267,3488.64364 519.67754,3485.80116 516.384079,3485.73656 C512.767731,3485.60736 509.926314,3488.38523 509.926314,3491.87373 L509.926314,3550.72594 C509.926314,3554.14983 512.638575,3556.86311 516.190346,3556.86311 C519.612962,3556.86311 522.841845,3554.14983 522.841845,3550.72594 L522.841845,3527.01709 L556.422226,3527.01709 L556.422226,3550.72594 C556.422226,3554.14983 559.521954,3556.86311 562.94457,3556.86311 C566.496341,3556.86311 569.208603,3554.14983 569.208603,3550.72594 L569.208603,3515.32417 L569.208603,3491.87373 Z" id="H-shape" transform="translate(539.567458, 3521.297668) rotate(20.000000) translate(-539.567458, -3521.297668) "></path>
        </g>
    </g>
</svg>