<?xml version="1.0" encoding="UTF-8"?>
<svg width="44px" height="67px" viewBox="0 0 44 67" version="1.1" xmlns="http://www.w3.org/2000/svg" xmlns:xlink="http://www.w3.org/1999/xlink">
    <!-- Generator: Sketch 60.1 (88133) - https://sketch.com -->
    <title>L-shape</title>
    <desc>Created with Sketch.</desc>
    <g  stroke="none" stroke-width="1" fill="none" fill-rule="evenodd">
        <g  transform="translate(-679.000000, -3488.000000)" fill="#3E3F3E" fill-rule="nonzero">
            <path d="M711.277615,3547.0177 C710.30895,3545.66106 708.823664,3544.75664 707.209223,3544.43363 C706.821757,3544.36903 706.434291,3544.30442 706.046825,3544.30442 C705.982247,3544.30442 705.91767,3544.30442 705.853092,3544.30442 L705.788515,3544.30442 L705.723937,3544.30442 C703.528297,3544.11062 701.7847,3541.91416 701.720122,3539.26549 L701.720122,3491.33097 C701.720122,3487.84248 698.878705,3485 695.326934,3485 C691.775163,3485 688.998324,3487.77788 688.998324,3491.33097 C688.998324,3491.33097 688.933746,3540.36372 688.933746,3542.36637 C688.933746,3547.34071 691.452275,3551.99204 695.7144,3554.83451 C698.297506,3556.51416 701.461812,3557.48319 704.367806,3557.48319 C704.367806,3557.48319 704.367806,3557.48319 704.367806,3557.48319 C705.336471,3557.48319 706.240558,3557.35398 707.080068,3557.16018 C709.792329,3556.51416 711.794237,3554.5115 712.310858,3551.92743 C712.762901,3550.24779 712.375435,3548.43894 711.277615,3547.0177 Z" id="L-shape" transform="translate(700.714881, 3521.241593) rotate(-20.000000) translate(-700.714881, -3521.241593) "></path>
        </g>
    </g>
</svg>