<?xml version="1.0" encoding="UTF-8"?>
<svg width="83px" height="61px" viewBox="0 0 83 61" version="1.1" xmlns="http://www.w3.org/2000/svg" xmlns:xlink="http://www.w3.org/1999/xlink">
    <!-- Generator: Sketch 60.1 (88133) - https://sketch.com -->
    <title>M-shape</title>
    <desc>Created with Sketch.</desc>
    <g  stroke="none" stroke-width="1" fill="none" fill-rule="evenodd">
        <g  transform="translate(-742.000000, -3492.000000)" fill="#3E3F3E" fill-rule="nonzero">
            <path d="M803.119891,3496 C795.758038,3496 789.623161,3499.87611 786.523433,3504.52743 C783.423706,3499.29469 778.322071,3496 771.412262,3496 C769.474932,3496 767.60218,3496.38761 765.923161,3497.03363 C761.208992,3498.51947 757.915531,3503.04159 757.915531,3503.04159 C757.915531,3502.97699 757.915531,3502.91239 757.915531,3502.84779 C757.786376,3499.35929 754.944959,3496 751.457766,3496 C747.905995,3496 745,3498.90708 745,3502.46018 C745,3502.46018 745,3502.46018 745,3502.46018 C745,3502.52478 745,3540.76903 745,3540.76903 C745,3544.51593 747.905995,3547.61681 751.457766,3547.61681 C755.009537,3547.61681 757.915531,3544.58053 757.915531,3540.76903 L757.915531,3520.09646 C757.915531,3514.0885 760.369482,3508.27434 767.60218,3508.27434 C774.318256,3508.27434 776.96594,3513.50708 776.96594,3520.09646 L776.96594,3540.76903 C776.96594,3544.51593 780.00109,3547.61681 783.552861,3547.61681 C787.104632,3547.61681 790.010627,3544.58053 790.010627,3540.76903 L790.010627,3520.09646 C790.010627,3514.0885 792.593733,3508.27434 799.697275,3508.27434 C806.413351,3508.27434 809.061035,3513.50708 809.061035,3520.09646 L809.061035,3540.76903 C809.061035,3544.51593 811.96703,3547.61681 815.518801,3547.61681 C819.070572,3547.61681 822.105722,3544.58053 822.105722,3540.76903 L822.105722,3518.93363 C822.234877,3505.30265 816.164578,3496 803.119891,3496 Z" id="M-shape" transform="translate(783.553870, 3521.808407) rotate(-10.000000) translate(-783.553870, -3521.808407) "></path>
        </g>
    </g>
</svg>