<?xml version="1.0" encoding="UTF-8"?>
<svg viewBox="0 0 72 60" version="1.1" xmlns="http://www.w3.org/2000/svg" xmlns:xlink="http://www.w3.org/1999/xlink">
    <!-- Generator: Sketch 60.1 (88133) - https://sketch.com -->
    <title>User Copy</title>
    <desc>Created with Sketch.</desc>
    <g stroke="none" stroke-width="1" fill-rule="evenodd">
        <g transform="translate(-650.000000, -3215.000000)" fill-rule="nonzero">
            <g transform="translate(650.000000, 3215.000000)">
                <path d="M22.05,39.2804878 C35.0508119,39.2804878 44.1,46.5792422 44.1,56.797561 C44.1,58.1243375 43.0890948,59.2099509 41.8110882,59.2946771 L41.65,59.3 L2.45,59.3 C1.09690236,59.3 0,58.1796199 0,56.797561 C0,46.5792422 9.04918811,39.2804878 22.05,39.2804878 Z M22.05,8 C29.492037,8 35.525,14.1620906 35.525,21.7634146 C35.525,29.3647386 29.492037,35.5268293 22.05,35.5268293 C14.607963,35.5268293 8.575,29.3647386 8.575,21.7634146 C8.575,14.1620906 14.607963,8 22.05,8 Z M69,0 C70.6568542,-3.04359188e-16 72,1.34314575 72,3 L72,19 C72,20.6568542 70.6568542,22 69,22 L56.498,22 L49.6357073,27.652947 C49.4924744,27.7709034 49.3200027,27.8460942 49.1379903,27.8714523 L49,27.8810167 C48.4477153,27.8810167 48,27.4333015 48,26.8810167 L48,26.8810167 L48,22 L44,22 C42.3431458,22 41,20.6568542 41,19 L41,3 C41,1.34314575 42.3431458,3.04359188e-16 44,0 L69,0 Z" id="Combined-Shape"></path>
            </g>
        </g>
    </g>
</svg>