<?xml version="1.0" encoding="UTF-8"?>
<svg width="51px" height="50px" viewBox="0 0 51 50" version="1.1" xmlns="http://www.w3.org/2000/svg" xmlns:xlink="http://www.w3.org/1999/xlink">
    <!-- Generator: Sketch 60.1 (88133) - https://sketch.com -->
    <title>Allergies</title>
    <desc>Created with Sketch.</desc>
    <g  stroke="none" stroke-width="1" fill="none" fill-rule="evenodd">
        <g  transform="translate(-475.000000, -2534.000000)" fill="none" fill-rule="nonzero">
            <g id="Allergies" transform="translate(476.000000, 2534.000000)">
                <path d="M24.5771222,4.26325641e-14 C27.2487405,4.26325641e-14 29.2897813,4.10019481 29.833648,8.25168446 C32.6229021,4.81400232 36.8858015,2.15082506 39.1417245,3.67246429 C41.4410673,5.2233906 40.4905637,10.33606 38.2580354,14.2400819 C42.6382446,12.9243313 48.0336679,13.1953827 49.0026493,15.8576371 C50.0327543,18.6878273 45.4936583,22.6634078 41.0146726,24.3234393 C45.1679796,25.9672552 49.0533733,29.309017 48.2490881,31.9397153 C47.4278283,34.6259349 42.138224,35.1925012 37.71707,34.1454419 C40.3132558,38.0140724 41.6599227,43.497413 39.3109557,45.2040374 C37.1253691,46.791959 32.818869,44.3266856 29.9121594,41.0249228 C29.5250977,45.4089243 27.4041455,50 24.5771222,50 C21.9484828,50 19.9302956,46.0306652 19.3480032,41.9486162 C16.6027545,44.8830106 12.9346472,46.9156659 10.8996586,45.5430488 C8.5809374,43.9790515 9.56707161,38.7930228 11.8400657,34.8769844 C7.5471886,36.0435677 2.47956632,35.7034062 1.54342599,33.1313817 C0.60867686,30.5631796 4.25977976,27.0518278 8.29047595,25.183363 L8.45966537,25.2370134 C3.87297491,23.8347214 -0.93541608,20.0723725 -0.049131908,17.1734676 C0.805861214,14.3769111 6.50381367,13.8777143 11.0229195,15.1048977 C8.55658496,11.2587835 7.33545402,6.0079236 9.62483186,4.34459324 C11.8701212,2.71329507 16.3537786,5.35965507 19.2586267,8.79609312 C19.6870059,4.46696551 21.7885721,4.26325641e-14 24.5771222,4.26325641e-14 Z M24.5771222,34.4155844 C23.9575071,34.4155844 23.3188555,34.9168775 22.8183414,35.7595809 C22.6583063,36.5679523 22.3776081,37.4000622 21.9842717,38.2206553 C21.9145451,38.6594521 21.8771828,39.1251282 21.8771828,39.6103896 C21.8771828,43.0254928 23.6354902,47.4025974 24.5771222,47.4025974 C25.5187543,47.4025974 27.2770616,43.0254928 27.2770616,39.6103896 C27.2770616,36.6480511 25.8847034,34.4155844 24.5771222,34.4155844 Z M14.6029111,35.3822023 C12.6739197,38.2420496 11.6116328,42.8586009 12.366779,43.3679535 C13.1219251,43.877306 17.0043773,41.1629801 18.9333687,38.3031328 C19.0832388,38.0809412 19.2208437,37.8576106 19.3464246,37.6346195 C19.5343063,36.5577889 19.8742659,35.5640839 20.3392996,34.7139371 C20.4500284,33.6686501 20.2235463,32.8440078 19.7023805,32.492477 C18.6537597,31.7851733 16.2761623,32.9015054 14.6029111,35.3822023 Z M30.0581379,32.4686262 C29.0348405,33.2120953 29.2706632,35.8281141 31.0294702,38.2489043 C33.0570937,41.0396886 37.0319094,43.6168653 37.7688194,43.0814689 C38.5057294,42.5460724 37.2829743,37.9694066 35.2553508,35.1786223 C33.4965438,32.7578322 31.0814353,31.7251571 30.0581379,32.4686262 Z M10.5118158,27.0878014 C7.27025296,28.2676338 3.697304,31.3781057 4.00884019,32.2340443 C4.32037637,33.089983 9.05678687,33.1760954 12.2983497,31.996263 C14.6517944,31.1396792 16.1971995,29.5730951 16.3848433,28.3881849 C16.2407032,28.031681 16.1204337,27.6630674 16.0245801,27.2846319 C15.1637752,26.4487361 12.9231523,26.2101467 10.5118158,27.0878014 Z M33.1950974,27.3372485 C32.8252867,28.5468451 34.5879825,30.4941689 37.4494961,31.3690214 C40.7483641,32.3775866 45.4737768,32.0437076 45.7400896,31.1726375 C46.0064025,30.3015673 42.2755606,27.3823519 38.9766926,26.3737868 C36.115179,25.4989343 33.5649082,26.1276519 33.1950974,27.3372485 Z M24.4816698,19.2525671 C21.2684489,19.2525671 18.6636186,21.8742345 18.6636186,25.1082251 C18.6636186,28.3422157 21.2684489,30.9638831 24.4816698,30.9638831 C27.6948908,30.9638831 30.2997211,28.3422157 30.2997211,25.1082251 C30.2997211,21.8742345 27.6948908,19.2525671 24.4816698,19.2525671 Z M2.45986653,17.9405454 C2.19355366,18.8116155 5.92439555,21.7308309 9.22326361,22.7393961 C12.0847772,23.6142486 14.635048,22.985531 15.0048587,21.7759344 C15.3746695,20.5663378 13.6119737,18.619014 10.7504601,17.7441615 C7.45159204,16.7355963 2.7261794,17.0694752 2.45986653,17.9405454 Z M38.2477255,16.9927559 C35.4359198,18.0161695 33.7775547,20.0530769 34.2101641,21.2416614 C34.6427735,22.4302459 37.2224537,22.924631 40.0342594,21.9012174 C43.2758223,20.721385 46.8487713,17.6109131 46.5372351,16.7549745 C46.2256989,15.8990359 41.4892884,15.8129235 38.2477255,16.9927559 Z M31.7374254,19.5086555 C31.5689396,19.5312783 31.4033624,19.5458203 31.2392943,19.5515973 C31.3650171,19.7044186 31.485308,19.8630594 31.600227,20.0258109 C31.6346299,19.8531704 31.6808181,19.6804449 31.7374254,19.5086555 Z M11.1669682,6.46716177 C10.4300582,7.00255823 11.6528133,11.579224 13.6804368,14.3700083 C15.4392438,16.7907985 17.8543523,17.8234735 18.8776497,17.0800044 C19.9009471,16.3365353 19.6651244,13.7205165 17.9063174,11.2997264 C15.8786939,8.50894203 11.9038782,5.9317653 11.1669682,6.46716177 Z M31.1080145,10.9123802 C29.4347633,13.3930771 29.2903819,16.0157324 30.3390027,16.7230361 C31.3876234,17.4303397 33.7652209,16.3140077 35.4384721,13.8333107 C37.3674634,10.9734634 38.4297504,6.35691211 37.6746042,5.84755959 C36.919458,5.33820706 33.0370058,8.05253291 31.1080145,10.9123802 Z M24.5771222,2.5974026 C23.6354902,2.5974026 21.8771828,6.97450724 21.8771828,10.3896104 C21.8771828,13.3519489 23.269541,15.5844156 24.5771222,15.5844156 C25.8847034,15.5844156 27.2770616,13.3519489 27.2770616,10.3896104 C27.2770616,6.97450724 25.5187543,2.5974026 24.5771222,2.5974026 Z" id="Combined-Shape"></path>
            </g>
        </g>
    </g>
</svg>