<?xml version="1.0" encoding="UTF-8"?>
<svg width="38px" height="56px" viewBox="0 0 38 56" version="1.1" xmlns="http://www.w3.org/2000/svg" xmlns:xlink="http://www.w3.org/1999/xlink">
    <!-- Generator: Sketch 60.1 (88133) - https://sketch.com -->
    <title>Body</title>
    <desc>Created with Sketch.</desc>
    <g  stroke="none" stroke-width="1" fill="none" fill-rule="evenodd">
        <g  transform="translate(-1035.000000, -2531.000000)" fill="none" fill-rule="nonzero">
            <g id="Body" transform="translate(1035.000000, 2531.000000)">
                <path d="M36.4989275,9.87652476 C38.2239752,11.256563 38.5036607,13.7737324 37.1236225,15.4987802 C34.4339131,18.8609169 32.432357,21.0050456 30.7749119,22.1339819 L30.5321473,22.293 L30.4651751,22.345784 C28.9610863,23.4996113 27.2208072,24.4488139 25.201795,25.0903811 C25.4133101,33.7748615 26.9866,42.4681369 29.9261189,51.1802933 C30.5733135,53.0984512 29.5240036,55.1717502 27.5824195,55.8111362 C25.6408355,56.4505221 23.5422156,55.4138727 22.8950209,53.4957147 C21.2562878,48.6388317 20.0095106,43.7769031 19.1555056,38.9114076 L19.0001473,38.9143274 C18.9477215,38.9143274 18.8954483,38.913682 18.8433353,38.912399 C17.9897786,43.7769031 16.7430014,48.6388317 15.1042683,53.4957147 C14.4570736,55.4138727 12.3584537,56.4505221 10.4168697,55.8111362 C8.47528559,55.1717502 7.42597567,53.0984512 8.07317036,51.1802933 C11.0126892,42.4681369 12.5859791,33.7748615 12.798948,25.0897638 C10.9065603,24.4889468 9.2608942,23.6185749 7.82458894,22.5631397 L7.46714729,22.293 L7.40814468,22.2552519 C5.77571726,21.2012367 3.81192125,19.139541 1.17271423,15.8673489 L0.876672054,15.4987802 C-0.503366139,13.7737324 -0.223680639,11.256563 1.5013671,9.87652476 C3.22641484,8.49648657 5.74358434,8.77617207 7.12362253,10.5012198 L7.80706795,11.3453408 C9.72236866,13.6815157 11.1136779,15.123287 11.6737819,15.4895496 L11.734703,15.5270274 C11.9149195,15.6300082 12.0868469,15.7468603 12.2489275,15.8765248 C13.8252994,17.1376223 15.9381247,18 19.0001473,18 C22.0621698,18 24.1749951,17.1376223 25.7513671,15.8765248 C25.8594208,15.7900818 25.9718509,15.7093332 26.0881958,15.6345928 L26.2655915,15.5270274 C26.8375654,15.2001852 28.5319047,13.432179 30.8766721,10.5012198 C32.2567102,8.77617207 34.7738797,8.49648657 36.4989275,9.87652476 Z M19.0001473,0 C22.8661405,0 26.0001473,3.12222477 26.0001473,6.97368421 C26.0001473,10.8251436 22.8661405,13.9473684 19.0001473,13.9473684 C15.134154,13.9473684 12.0001473,10.8251436 12.0001473,6.97368421 C12.0001473,3.12222477 15.134154,0 19.0001473,0 Z" id="Combined-Shape"></path>
            </g>
        </g>
    </g>
</svg>