<?xml version="1.0" encoding="UTF-8"?>
<svg width="31px" height="47px" viewBox="0 0 31 47" version="1.1" xmlns="http://www.w3.org/2000/svg" xmlns:xlink="http://www.w3.org/1999/xlink">
    <!-- Generator: Sketch 60.1 (88133) - https://sketch.com -->
    <title>Clipboard</title>
    <desc>Created with Sketch.</desc>
    <g  stroke="none" stroke-width="1" fill="none" fill-rule="evenodd">
        <g  transform="translate(-651.000000, -2378.000000)" fill="none" fill-rule="nonzero">
            <g id="Clipboard" transform="translate(651.000000, 2378.000000)">
                <path d="M3.66982863,7 C4.98023705,7 6.05809582,8.00905333 6.16168368,9.29729327 L6.16950418,9.45972456 L6.19211303,10.8629315 C6.19967801,11.3324484 6.55565014,11.7157364 7.01135577,11.7680963 L7.11817584,11.7741935 L23.8818242,11.7741935 C24.351402,11.7741935 24.740375,11.4244424 24.8000697,10.9696395 L24.807887,10.8629315 L24.8304958,9.45972456 C24.8516067,8.1494862 25.8778936,7.08802334 27.1676352,7.00520269 L27.3301714,7 L28.5,7 C29.8254834,7 30.9100387,8.03153594 30.9946823,9.33562431 L31,9.5 L31,44.5 C31,45.8254834 29.9684641,46.9100387 28.6643757,46.9946823 L28.5,47 L2.5,47 C1.1745166,47 0.089961328,45.9684641 0.00531767968,44.6643757 L0,44.5 L0,9.5 C0,8.1745166 1.03153594,7.08996133 2.33562431,7.00531768 L2.5,7 L3.66982863,7 Z M15.5,0 C17.9852814,0 20,2.01471863 20,4.5 C20,5.21890625 19.8314193,5.89843837 19.531633,6.50122137 L22.5,6.5 C23.0522847,6.5 23.5,6.94771525 23.5,7.5 L23.5,9.5 C23.5,10.0522847 23.0522847,10.5 22.5,10.5 L8.5,10.5 C7.94771525,10.5 7.5,10.0522847 7.5,9.5 L7.5,7.5 C7.5,6.94771525 7.94771525,6.5 8.5,6.5 L11.468367,6.50122137 C11.1685807,5.89843837 11,5.21890625 11,4.5 C11,2.01471863 13.0147186,0 15.5,0 Z M15.5,3 C14.6715729,3 14,3.67157288 14,4.5 C14,5.32842712 14.6715729,6 15.5,6 C16.3284271,6 17,5.32842712 17,4.5 C17,3.67157288 16.3284271,3 15.5,3 Z" id="Combined-Shape"></path>
            </g>
        </g>
    </g>
</svg>