<?xml version="1.0" encoding="UTF-8"?>
<svg width="31px" height="48px" viewBox="0 0 31 48" version="1.1" xmlns="http://www.w3.org/2000/svg" xmlns:xlink="http://www.w3.org/1999/xlink">
    <!-- Generator: Sketch 60.1 (88133) - https://sketch.com -->
    <title>Clipboard-lines</title>
    <desc>Created with Sketch.</desc>
    <g  stroke="none" stroke-width="1" fill="none" fill-rule="evenodd">
        <g  transform="translate(-836.000000, -2378.000000)" fill="none" fill-rule="nonzero">
            <g id="Clipboard-lines" transform="translate(836.000000, 2378.000000)">
                <path d="M15.5,0 C17.9852814,0 20,2.01471863 20,4.5 C20,5.02636118 19.9096286,5.53161499 19.7435553,6.00109191 L22.5,6 C23.5450628,6 24.4403559,6.64123988 24.8138849,7.55172509 L24.9835895,7.52237927 L24.9835895,7.52237927 L25.1575964,7.50512069 L25.3188101,7.5 L28.5,7.5 C29.8254834,7.5 30.9100387,8.53153594 30.9946823,9.83562431 L31,10 L31,45 C31,46.3254834 29.9684641,47.4100387 28.6643757,47.4946823 L28.5,47.5 L2.5,47.5 C1.1745166,47.5 0.089961328,46.4684641 0.00531767968,45.1643757 L0,45 L0,10 C0,8.6745166 1.03153594,7.58996133 2.33562431,7.50531768 L2.5,7.5 L5.68118989,7.5 C5.85432414,7.5 6.02343568,7.51762477 6.1868,7.55119695 C6.53925833,6.6898443 7.36138458,6.06855205 8.33562431,6.00531768 L8.5,6 L11.2564447,6.00109191 C11.0903714,5.53161499 11,5.02636118 11,4.5 C11,2.01471863 13.0147186,0 15.5,0 Z M5.196,10.5 L3,10.5 L3,44.5 L28,44.5 L28,10.5 L25.803,10.5 L25.7971284,10.6033122 C25.6769728,11.9866323 24.5984327,13.0884498 23.2357475,13.2529617 L23.0564499,13.2690504 L22.8816009,13.2741935 L8.11839913,13.2741935 C6.59234781,13.2741935 5.33326655,12.1045152 5.20287158,10.6033122 L5.196,10.5 Z M16,35 C16.8284271,35 17.5,35.6715729 17.5,36.5 C17.5,37.3284271 16.8284271,38 16,38 L8,38 C7.17157288,38 6.5,37.3284271 6.5,36.5 C6.5,35.6715729 7.17157288,35 8,35 L16,35 Z M23,29.3333333 C23.8284271,29.3333333 24.5,30.0049062 24.5,30.8333333 C24.5,31.6617605 23.8284271,32.3333333 23,32.3333333 L8,32.3333333 C7.17157288,32.3333333 6.5,31.6617605 6.5,30.8333333 C6.5,30.0049062 7.17157288,29.3333333 8,29.3333333 L23,29.3333333 Z M23,23.6666667 C23.8284271,23.6666667 24.5,24.3382395 24.5,25.1666667 C24.5,25.9950938 23.8284271,26.6666667 23,26.6666667 L8,26.6666667 C7.17157288,26.6666667 6.5,25.9950938 6.5,25.1666667 C6.5,24.3382395 7.17157288,23.6666667 8,23.6666667 L23,23.6666667 Z M23,18 C23.8284271,18 24.5,18.6715729 24.5,19.5 C24.5,20.3284271 23.8284271,21 23,21 L8,21 C7.17157288,21 6.5,20.3284271 6.5,19.5 C6.5,18.6715729 7.17157288,18 8,18 L23,18 Z M22,9 L9,9 L9,10 L22,10 L22,9 Z M15.5,3 C14.6715729,3 14,3.67157288 14,4.5 C14,5.32842712 14.6715729,6 15.5,6 C16.3284271,6 17,5.32842712 17,4.5 C17,3.67157288 16.3284271,3 15.5,3 Z" id="Combined-Shape-Copy-3"></path>
            </g>
        </g>
    </g>
</svg>