<?xml version="1.0" encoding="UTF-8"?>
<svg width="45px" height="52px" viewBox="0 0 45 52" version="1.1" xmlns="http://www.w3.org/2000/svg" xmlns:xlink="http://www.w3.org/1999/xlink">
    <!-- Generator: Sketch 60.1 (88133) - https://sketch.com -->
    <title>Doctor</title>
    <desc>Created with Sketch.</desc>
    <g  stroke="none" stroke-width="1" fill="none" fill-rule="evenodd">
        <g  transform="translate(-481.000000, -2376.000000)" fill="none" fill-rule="nonzero">
            <g id="Doctor" transform="translate(481.000000, 2376.000000)">
                <path d="M36.756,47.2692857 C36.7641336,47.2692857 36.7722362,47.2691525 36.7803055,47.2688882 L36.75,47.2692857 C37.318301,47.2692857 37.7861735,46.8405536 37.8460307,46.2897793 L37.8525,46.17 L37.8525,43.9714286 L37.8496676,43.7935414 C37.7674105,41.2140062 35.9025594,39.0830567 33.4429174,38.585033 L33.4431833,33.5061013 C40.0364086,36.4136838 44.1,41.9500986 44.1,48.797561 C44.1,50.1243375 43.0890948,51.2099509 41.8110882,51.2946771 L41.65,51.3 L2.45,51.3 C1.09690236,51.3 0,50.1796199 0,48.797561 C0,41.8236403 4.2150694,36.209639 11.0246845,33.3477085 L11.0252467,38.6134659 C9.12305853,39.1015103 7.7175,40.8231622 7.7175,42.8721429 C7.7175,45.3006178 9.69192425,47.2692857 12.1275,47.2692857 C14.5630757,47.2692857 16.5375,45.3006178 16.5375,42.8721429 C16.5375,40.823523 15.1324363,39.1021165 13.2307579,38.6137238 L13.2303556,32.5460527 C15.8790498,31.7242248 18.8444029,31.2804878 22.05,31.2804878 C25.4050351,31.2804878 28.4969048,31.7665613 31.2380013,32.6634466 L31.2372073,38.5850077 C28.7974263,39.0789512 26.9428402,41.1795494 26.8326814,43.7309494 L26.8275,43.9714286 L26.8275,46.17 L26.8325469,46.2758686 C26.8850872,46.8241037 27.3414687,47.2548404 27.9016681,47.2689298 L27.924,47.2692857 L30.141,47.2692857 C30.5436156,47.2692857 30.87,46.9429013 30.87,46.5402857 L30.87,46.5402857 L30.87,45.7997143 C30.87,45.3970987 30.5436156,45.0707143 30.141,45.0707143 L30.141,45.0707143 L29.032,45.07 L29.0325,43.9714286 L29.0361,43.8161833 C29.1174005,42.0669062 30.5655091,40.6735714 32.34,40.6735714 C34.1036928,40.6735714 35.5449634,42.0500004 35.6422642,43.784289 L35.6475,43.9714286 L35.647,45.07 L34.539,45.0707143 C34.1699357,45.0707143 33.8649268,45.3449679 33.8166549,45.7007933 L33.81,45.7997143 L33.81,46.5402857 C33.81,46.9429013 34.1363844,47.2692857 34.539,47.2692857 L34.539,47.2692857 Z M12.1275,40.6735714 C13.3452879,40.6735714 14.3325,41.6579054 14.3325,42.8721429 C14.3325,44.0863803 13.3452879,45.0707143 12.1275,45.0707143 C10.9097121,45.0707143 9.9225,44.0863803 9.9225,42.8721429 C9.9225,41.6579054 10.9097121,40.6735714 12.1275,40.6735714 Z M22.05,0 C29.492037,0 35.525,6.16209063 35.525,13.7634146 C35.525,21.3647386 29.492037,27.5268293 22.05,27.5268293 C14.607963,27.5268293 8.575,21.3647386 8.575,13.7634146 C8.575,6.16209063 14.607963,0 22.05,0 Z" id="Combined-Shape"></path>
            </g>
        </g>
    </g>
</svg>