<?xml version="1.0" encoding="UTF-8"?>
<svg width="58px" height="46px" viewBox="0 0 58 46" version="1.1" xmlns="http://www.w3.org/2000/svg" xmlns:xlink="http://www.w3.org/1999/xlink">
    <!-- Generator: Sketch 60.1 (88133) - https://sketch.com -->
    <title>Friend</title>
    <desc>Created with Sketch.</desc>
    <g  stroke="none" stroke-width="1" fill="none" fill-rule="evenodd">
        <g  transform="translate(-1033.000000, -2694.000000)" fill="none" fill-rule="nonzero">
            <g id="Friend" transform="translate(1033.000000, 2694.000000)">
                <path d="M19.8,27.9878049 C31.4741984,27.9878049 39.6,34.5182693 39.6,43.6609756 C39.6,44.8975546 38.6150264,45.9 37.4,45.9 L37.4,45.9 L2.2,45.9 C0.98497355,45.9 0,44.8975546 0,43.6609756 C0,34.5182693 8.12580157,27.9878049 19.8,27.9878049 Z M19.8,0 C26.4826455,0 31.9,5.51344951 31.9,12.3146341 C31.9,19.1158188 26.4826455,24.6292683 19.8,24.6292683 C13.1173545,24.6292683 7.7,19.1158188 7.7,12.3146341 C7.7,5.51344951 13.1173545,0 19.8,0 Z" id="Combined-Shape"></path>
                <path d="M44.5054613,22.2585366 C52.2260797,22.2585366 57.6,26.6121796 57.6,32.7073171 C57.6,33.5317031 56.9485973,34.2 56.1450513,34.2 L56.1450513,34.2 L40.1517259,34.1956087 C39.8931287,34.1955377 39.6470555,34.0842405 39.4762699,33.8900633 C39.0449273,33.3997999 38.3102885,32.697849 37.2723536,31.7842105 C36.1684898,30.8125384 34.8152433,29.8617266 33.2126141,28.9317752 C33.2021102,28.9256802 33.1917308,28.9193732 33.1814822,28.9128581 C32.7620096,28.6461962 32.6381319,28.0899743 32.9047938,27.6705017 L32.9047938,27.6705017 L33.0158701,27.4963962 C33.336535,26.9956954 33.5441591,26.6895597 33.6387425,26.5779889 C35.9090622,23.8999173 39.7648938,22.2585366 44.5054613,22.2585366 Z M44.5054613,3.6 C48.9249643,3.6 52.5076794,7.27563301 52.5076794,11.8097561 C52.5076794,16.3438792 48.9249643,20.0195122 44.5054613,20.0195122 C40.0859583,20.0195122 36.5032433,16.3438792 36.5032433,11.8097561 C36.5032433,7.27563301 40.0859583,3.6 44.5054613,3.6 Z" id="Combined-Shape"></path>
            </g>
        </g>
    </g>
</svg>