<?xml version="1.0" encoding="UTF-8"?>
<svg width="62px" height="38px" viewBox="0 0 62 38" version="1.1" xmlns="http://www.w3.org/2000/svg" xmlns:xlink="http://www.w3.org/1999/xlink">
    <!-- Generator: Sketch 60.1 (88133) - https://sketch.com -->
    <title>Group</title>
    <desc>Created with Sketch.</desc>
    <g  stroke="none" stroke-width="1" fill="none" fill-rule="evenodd">
        <g  transform="translate(-1232.000000, -2698.000000)" fill="none" fill-rule="nonzero">
            <g id="Group" transform="translate(1232.000000, 2698.000000)">
                <path d="M30.6,23.0487805 C40.1516169,23.0487805 46.8,28.42681 46.8,35.9560976 C46.8,36.9744568 45.9941125,37.8 45,37.8 L45,37.8 L16.2,37.8 C15.2058875,37.8 14.4,36.9744568 14.4,35.9560976 C14.4,28.42681 21.0483831,23.0487805 30.6,23.0487805 Z M30.6,0 C36.067619,0 40.5,4.54048783 40.5,10.1414634 C40.5,15.742439 36.067619,20.2829268 30.6,20.2829268 C25.132381,20.2829268 20.7,15.742439 20.7,10.1414634 C20.7,4.54048783 25.132381,0 30.6,0 Z" id="Combined-Shape"></path>
                <path d="M50.4437718,18.0658537 C56.7857083,18.0658537 61.2,21.6512067 61.2,26.6707317 C61.2,27.3496378 60.6649192,27.9 60.0048635,27.9 L60.0048635,27.9 L46.9403379,27.8964037 C46.6845057,27.8963333 46.4407927,27.7873897 46.270128,27.5968019 C45.910961,27.1957291 45.3216818,26.6336373 44.5022905,25.9105263 C43.6274302,25.1384642 42.5618734,24.3823942 41.30562,23.6423165 C41.2963131,23.6368337 41.2871057,23.6311837 41.2780022,23.6253695 C40.8590767,23.3578074 40.7363724,22.8012994 41.0039345,22.382374 L41.0039345,22.382374 L41.0987823,22.2346466 C41.3098059,21.9075074 41.4493913,21.7036418 41.5175385,21.6230497 C43.382444,19.417579 46.5497342,18.0658537 50.4437718,18.0658537 Z M50.4437718,2.7 C54.0740778,2.7 57.0170224,5.72699189 57.0170224,9.46097561 C57.0170224,13.1949593 54.0740778,16.2219512 50.4437718,16.2219512 C46.8134658,16.2219512 43.8705212,13.1949593 43.8705212,9.46097561 C43.8705212,5.72699189 46.8134658,2.7 50.4437718,2.7 Z" id="Combined-Shape"></path>
                <path d="M9.58145981,18.0658537 C15.9233963,18.0658537 20.337688,21.6512067 20.337688,26.6707317 C20.337688,27.3496378 19.8026072,27.9 19.1425515,27.9 L19.1425515,27.9 L6.07802588,27.8964037 C5.82219366,27.8963333 5.57848074,27.7873897 5.40781603,27.5968019 C5.048649,27.1957291 4.45936981,26.6336373 3.63997847,25.9105263 C2.76511824,25.1384642 1.6995614,24.3823942 0.443307955,23.6423165 C0.434001076,23.6368337 0.424793655,23.6311837 0.415690165,23.6253695 C-0.00323527337,23.3578074 -0.125939567,22.8012994 0.141622454,22.382374 L0.141622454,22.382374 L0.236470265,22.2346466 C0.447493923,21.9075074 0.587079339,21.7036418 0.655226514,21.6230497 C2.52013199,19.417579 5.68742217,18.0658537 9.58145981,18.0658537 Z M9.58145981,2.7 C13.2117658,2.7 16.1547104,5.72699189 16.1547104,9.46097561 C16.1547104,13.1949593 13.2117658,16.2219512 9.58145981,16.2219512 C5.95115377,16.2219512 3.00820925,13.1949593 3.00820925,9.46097561 C3.00820925,5.72699189 5.95115377,2.7 9.58145981,2.7 Z" id="Combined-Shape-Copy-6" transform="translate(10.168844, 15.300000) scale(-1, 1) translate(-10.168844, -15.300000) "></path>
            </g>
        </g>
    </g>
</svg>