<?xml version="1.0" encoding="UTF-8"?>
<svg width="69px" height="56px" viewBox="0 0 69 56" version="1.1" xmlns="http://www.w3.org/2000/svg" xmlns:xlink="http://www.w3.org/1999/xlink">
    <!-- Generator: Sketch 60.1 (88133) - https://sketch.com -->
    <title>Help</title>
    <desc>Created with Sketch.</desc>
    <g  stroke="none" stroke-width="1" fill="none" fill-rule="evenodd">
        <g  transform="translate(-486.000000, -2852.000000)" fill="none" fill-rule="nonzero">
            <g id="Help" transform="translate(486.000000, 2852.000000)">
                <path d="M19.0001473,14.9998527 L19.4838647,15.0046784 C24.1228942,15.0977202 27.6947083,16.5287686 30.4651751,18.6540687 L30.4651751,18.6540687 L30.5321473,18.7068527 L30.7749119,18.8658708 C32.432357,19.9948072 34.4339131,22.1389358 37.1236225,25.5010725 C38.5036607,27.2261203 38.2239752,29.7432898 36.4989275,31.1233279 C34.7738797,32.5033661 32.2567102,32.2236806 30.8766721,30.4986329 C28.5319047,27.5676737 26.8375654,25.7996675 26.2655915,25.4728253 L26.2655915,25.4728253 L26.0881958,25.3652599 C25.9718509,25.2905195 25.8594208,25.2097709 25.7513671,25.1233279 C25.5723754,24.9801346 25.3864673,24.8420819 25.1930386,24.7098486 C25.3678258,33.5219429 26.9438387,42.3414009 29.9261189,51.1802933 C30.5733135,53.0984512 29.5240036,55.1717502 27.5824195,55.8111362 C25.6408355,56.4505221 23.5422156,55.4138727 22.8950209,53.4957147 C21.2562878,48.6388317 20.0095106,43.7769031 19.1555056,38.9114076 L19.0001473,38.9143274 C18.9477215,38.9143274 18.8954483,38.913682 18.8433353,38.912399 C17.9897786,43.7769031 16.7430014,48.6388317 15.1042683,53.4957147 C14.4570736,55.4138727 12.3584537,56.4505221 10.4168697,55.8111362 C8.47528559,55.1717502 7.42597567,53.0984512 8.07317036,51.1802933 C11.0552247,42.34207 12.6312248,33.5232782 12.8073387,24.7127429 C12.612717,24.8429064 12.4273847,24.9805622 12.2489275,25.1233279 C12.0868469,25.2529924 11.9149195,25.3698445 11.734703,25.4728253 L11.734703,25.4728253 L11.6737819,25.5103031 C11.1136779,25.8765657 9.72236866,27.318337 7.80706795,29.6545119 L7.80706795,29.6545119 L7.12362253,30.4986329 C5.74358434,32.2236806 3.22641484,32.5033661 1.5013671,31.1233279 C-0.223680639,29.7432898 -0.503366139,27.2261203 0.876672054,25.5010725 L0.876672054,25.5010725 L1.17271423,25.1325038 C3.81192125,21.8603117 5.77571726,19.798616 7.40814468,18.7446008 L7.40814468,18.7446008 L7.46714729,18.7068527 L7.82458894,18.436713 C10.6506372,16.3600578 14.2872007,14.9998527 19.0001473,14.9998527 L19.0001473,14.9998527 Z M19.0001473,0 C22.8661405,0 26.0001473,3.12222477 26.0001473,6.97368421 C26.0001473,10.8251436 22.8661405,13.9473684 19.0001473,13.9473684 C15.134154,13.9473684 12.0001473,10.8251436 12.0001473,6.97368421 C12.0001473,3.12222477 15.134154,0 19.0001473,0 Z" id="Combined-Shape"></path>
                <path d="M50.0001473,14.9998527 L50.4838647,15.0046784 C55.1228942,15.0977202 58.6947083,16.5287686 61.4651751,18.6540687 L61.4651751,18.6540687 L61.5321473,18.7068527 L61.7749119,18.8658708 C63.432357,19.9948072 65.4339131,22.1389358 68.1236225,25.5010725 C69.5036607,27.2261203 69.2239752,29.7432898 67.4989275,31.1233279 C65.7738797,32.5033661 63.2567102,32.2236806 61.8766721,30.4986329 C59.5319047,27.5676737 57.8375654,25.7996675 57.2655915,25.4728253 L57.2655915,25.4728253 L57.0881958,25.3652599 C56.9718509,25.2905195 56.8594208,25.2097709 56.7513671,25.1233279 C56.5723754,24.9801346 56.3864673,24.8420819 56.1930386,24.7098486 C56.3678258,33.5219429 57.9438387,42.3414009 60.9261189,51.1802933 C61.5733135,53.0984512 60.5240036,55.1717502 58.5824195,55.8111362 C56.6408355,56.4505221 54.5422156,55.4138727 53.8950209,53.4957147 C52.2562878,48.6388317 51.0095106,43.7769031 50.1555056,38.9114076 L50.0001473,38.9143274 C49.9477215,38.9143274 49.8954483,38.913682 49.8433353,38.912399 C48.9897786,43.7769031 47.7430014,48.6388317 46.1042683,53.4957147 C45.4570736,55.4138727 43.3584537,56.4505221 41.4168697,55.8111362 C39.4752856,55.1717502 38.4259757,53.0984512 39.0731704,51.1802933 C42.0552247,42.34207 43.6312248,33.5232782 43.8073387,24.7127429 C43.612717,24.8429064 43.4273847,24.9805622 43.2489275,25.1233279 C43.0868469,25.2529924 42.9149195,25.3698445 42.734703,25.4728253 L42.734703,25.4728253 L42.6737819,25.5103031 C42.1136779,25.8765657 40.7223687,27.318337 38.807068,29.6545119 L38.807068,29.6545119 L38.1236225,30.4986329 C36.7435843,32.2236806 34.2264148,32.5033661 32.5013671,31.1233279 C30.7763194,29.7432898 30.4966339,27.2261203 31.8766721,25.5010725 L31.8766721,25.5010725 L32.1727142,25.1325038 C34.8119212,21.8603117 36.7757173,19.798616 38.4081447,18.7446008 L38.4081447,18.7446008 L38.4671473,18.7068527 L38.8245889,18.436713 C41.6506372,16.3600578 45.2872007,14.9998527 50.0001473,14.9998527 L50.0001473,14.9998527 Z M50.0001473,0 C53.8661405,0 57.0001473,3.12222477 57.0001473,6.97368421 C57.0001473,10.8251436 53.8661405,13.9473684 50.0001473,13.9473684 C46.134154,13.9473684 43.0001473,10.8251436 43.0001473,6.97368421 C43.0001473,3.12222477 46.134154,0 50.0001473,0 Z" id="Combined-Shape"></path>
            </g>
        </g>
    </g>
</svg>