<?xml version="1.0" encoding="UTF-8"?>
<svg width="64px" height="57px" viewBox="0 0 64 57" version="1.1" xmlns="http://www.w3.org/2000/svg" xmlns:xlink="http://www.w3.org/1999/xlink">
    <!-- Generator: Sketch 60.1 (88133) - https://sketch.com -->
    <title>Injection</title>
    <desc>Created with Sketch.</desc>
    <g  stroke="none" stroke-width="1" fill="none" fill-rule="evenodd">
        <g  transform="translate(-836.000000, -2529.000000)" fill="none" fill-rule="nonzero">
            <g id="Injection" transform="translate(831.000000, 2528.000000)">
                <path d="M40.203271,-7 C42.1904638,-7 43.8014019,-5.40101696 43.8014019,-3.42857143 C43.8014019,-1.45612589 42.1904638,0.142857143 40.203271,0.142857143 L40.203271,0.142857143 L40.071,0.142 L40.0714286,9.12750334 C40.0714286,9.16707514 40.070398,9.20592702 40.0683622,9.24407194 C42.2432791,9.71909115 43.8907544,11.6232197 43.9947799,13.9326322 L44,14.1648865 L44,55.9032043 C44,57.2753136 43.4554808,58.5192927 42.5722732,59.4277719 L42.5714286,59.5013351 L42.4991443,59.5014626 C41.6574633,60.3323505 40.5254877,60.8658853 39.2707015,60.9333304 L39.071,60.938 L39.0714286,66.6975968 C39.0714286,68.6206866 37.5739419,70.1914046 35.6896748,70.2907401 L35.5,70.2957276 C33.5911817,70.2957276 32.0321202,68.7870448 31.9335219,66.8886898 L31.9285714,66.6975968 L31.9277866,60.9400728 C30.5940902,60.9210509 29.3866957,60.3759433 28.5008557,59.5014626 L28.4285714,59.5013351 L28.4277268,59.4277719 C27.6033998,58.579858 27.0741078,57.4396864 27.0071993,56.1758563 L27,55.9032043 L27,14.1648865 C27,11.7517495 28.6842237,9.73492512 30.933,9.24245578 L30.9285714,9.12750334 L30.928,0.142 L30.8481308,0.142857143 C28.925041,0.142857143 27.354323,-1.35462957 27.2549875,-3.2388966 L27.25,-3.42857143 C27.25,-5.40101696 28.860938,-7 30.8481308,-7 L30.8481308,-7 Z M36.214,60.9404846 L34.785,60.9404846 L34.7857143,66.6975968 C34.7857143,67.0619155 35.0544323,67.3630025 35.4030757,67.4106536 L35.5,67.417223 C35.861615,67.417223 36.1604676,67.1464959 36.2077651,66.7952458 L36.2142857,66.6975968 L36.214,60.9404846 Z M39,12.006008 L32,12.006008 C30.8679878,12.006008 29.9409916,12.890349 29.8625232,14.0107082 L29.8571429,14.1648865 L29.857,35.0334846 L41.142,35.0334846 L41.1428571,14.1648865 C41.1428571,13.0244107 40.2650789,12.0904837 39.1530341,12.0114286 L39,12.006008 Z M37.214,0.142 L33.785,0.142 L33.7857143,9.12750334 L37.2142857,9.12750334 L37.214,0.142 Z M40.203271,-4.14285714 L30.8481308,-4.14285714 C30.4506923,-4.14285714 30.1285047,-3.82306054 30.1285047,-3.42857143 C30.1285047,-3.03408232 30.4506923,-2.71428571 30.8481308,-2.71428571 L30.8481308,-2.71428571 L40.203271,-2.71428571 C40.6007096,-2.71428571 40.9228972,-3.03408232 40.9228972,-3.42857143 C40.9228972,-3.82306054 40.6007096,-4.14285714 40.203271,-4.14285714 L40.203271,-4.14285714 Z" id="Combined-Shape" transform="translate(35.500000, 31.647864) rotate(50.000000) translate(-35.500000, -31.647864) "></path>
            </g>
        </g>
    </g>
</svg>