<?xml version="1.0" encoding="UTF-8"?>
<svg width="43px" height="40px" viewBox="0 0 43 40" version="1.1" xmlns="http://www.w3.org/2000/svg" xmlns:xlink="http://www.w3.org/1999/xlink">
    <!-- Generator: Sketch 60.1 (88133) - https://sketch.com -->
    <title>Medications</title>
    <desc>Created with Sketch.</desc>
    <g  stroke="none" stroke-width="1" fill="none" fill-rule="evenodd">
        <g  transform="translate(-649.000000, -2539.000000)" fill="none" fill-rule="nonzero">
            <g id="Medications" transform="translate(644.000000, 2534.000000)">
                <path d="M26.5,1 C32.8512746,1 38,6.14872538 38,12.5 L38,12.5 L38,37.5 C38,43.8512746 32.8512746,49 26.5,49 C20.1487254,49 15,43.8512746 15,37.5 L15,37.5 L15,12.5 C15,6.14872538 20.1487254,1 26.5,1 Z M26.5,4 C21.8055796,4 18,7.80557963 18,12.5 L18,12.5 L18,24 L35,24 L35,12.5 C35,7.89093272 31.331547,4.13867855 26.7551603,4.0037566 L26.7551603,4.0037566 Z" id="Combined-Shape" transform="translate(26.500000, 25.000000) rotate(50.000000) translate(-26.500000, -25.000000) "></path>
            </g>
        </g>
    </g>
</svg>