<?xml version="1.0" encoding="UTF-8"?>
<svg width="35px" height="35px" viewBox="0 0 35 35" version="1.1" xmlns="http://www.w3.org/2000/svg" xmlns:xlink="http://www.w3.org/1999/xlink">
    <!-- Generator: Sketch 60.1 (88133) - https://sketch.com -->
    <title>Network</title>
    <desc>Created with Sketch.</desc>
    <g  stroke="none" stroke-width="1" fill="none" fill-rule="evenodd">
        <g  transform="translate(-1031.000000, -2384.000000)" fill="none">
            <g id="Network" transform="translate(1031.000000, 2384.000000)">
                <path d="M4.24390441,0.0195994477 C6.06722932,0.130419373 8.68929446,0.642433604 11.3886544,1.51123846 L11.8656675,1.66825163 L12.0044946,1.71535474 L12.0734703,1.73590004 C22.3095623,4.84955496 30.0825585,12.5400327 33.1157796,22.8562438 L33.2524007,23.334234 L33.3190794,23.5823252 C34.1642637,26.2827677 34.6505346,28.9239763 34.7306364,30.690515 C34.7512559,31.1452499 34.7446074,31.5186901 34.6877359,31.8788589 C34.655519,32.0828894 34.6083886,32.2834773 34.5257021,32.5088217 C34.2943705,33.1392663 33.9351413,33.6891402 33.1479735,34.1268858 C31.8202903,34.865213 30.4296871,34.4923501 29.5600735,33.6345816 C29.237392,33.3162955 29.053898,33.01749 28.906023,32.6899307 C28.6678167,32.1622775 28.5382449,31.4958399 28.4282405,30.4698296 L28.3744565,29.9258378 C28.2481917,28.5530315 28.0306965,27.2185986 27.7286864,25.9419602 L27.5594946,25.2673547 L27.5025048,25.0901021 C26.2004157,21.0631062 24.1394681,17.3349446 21.2559548,14.3172275 L20.8751743,13.9276751 C18.0581439,11.1106447 14.5637624,9.0287489 10.7430341,7.63258455 L10.1704946,7.42935474 L9.98005087,7.37304979 C8.548254,6.95800202 7.06924049,6.65489161 5.55498327,6.46739466 L4.90389301,6.39412792 L4.35294697,6.33479947 C3.22809314,6.20486219 2.53530092,6.05944747 1.97143796,5.77322155 C1.55835217,5.56353255 1.197421,5.30125669 0.848905235,4.81293286 C0.0282862533,3.66312027 0.0987161098,2.06633491 1.10269937,0.994916953 C1.55917008,0.507786406 1.99944556,0.290626647 2.4889701,0.147441477 C2.68281937,0.0907408647 2.85888329,0.0575080483 3.03742157,0.0352992131 C3.39245295,-0.00886405351 3.77985421,-0.00860507442 4.24390441,0.0195994477 Z M3.56854114,13.3246017 C4.60889423,13.3853076 6.04845022,13.6592476 7.53913156,14.1248017 L7.91266557,14.2451697 L8.03649461,14.2863547 L8.13229038,14.3155537 C13.9651365,16.11882 18.3953531,20.5394696 20.1194395,26.4958821 L20.1834946,26.7283547 L20.2161613,26.8277204 C20.6811318,28.3394042 20.9492424,29.8250047 20.9911195,30.8528194 C21.0048102,31.1888385 20.9978553,31.4686072 20.9412826,31.7893514 L20.9165211,31.9191426 C20.8901731,32.0468611 20.8639681,32.1215638 20.7460453,32.4577261 L20.6557616,32.6850887 C20.466344,33.1324097 20.2931319,33.2489116 18.9651729,34.1420926 L18.5488346,34.223301 C17.7612461,34.3713225 17.6444247,34.3352019 16.768264,34.0642974 L16.4854666,33.9034285 C16.0459228,33.6510086 16.0017405,33.6043511 15.7145559,33.3010771 L15.4263008,32.9072968 C15.2977149,32.7248811 15.2702969,32.6617499 15.1880428,32.4723562 C15.0171702,32.0767522 14.9304336,31.6854817 14.8634457,31.1309172 L14.8093623,30.6116762 C14.7586889,30.0617422 14.6775008,29.5258111 14.5711806,29.0229765 L14.4868124,28.6523545 L14.4254946,28.4153547 L14.2999959,28.0392234 C13.6447288,26.1612671 12.6393526,24.4392755 11.2674635,23.0698978 C9.96555387,21.7703714 8.33730925,20.7922331 6.53446003,20.1204304 L6.19849461,19.9993547 L6.10605327,19.9721259 C5.48813064,19.7946807 4.85096606,19.6606545 4.19870961,19.5714606 L3.70675239,19.5129934 C2.84214848,19.4255693 2.3441026,19.345188 1.84420564,19.125912 L1.51587524,18.9675485 C1.31279436,18.8590103 1.20168964,18.7510454 0.646166056,18.2112207 L0.446163777,17.9213624 C0.210214305,17.5627097 0.177022572,17.3931206 0,16.4886456 L0.0597743048,15.9384826 C0.14573654,15.2271331 0.22613581,15.1078851 0.681731669,14.4321464 L1.20530895,13.9879565 C1.68394488,13.5894255 1.76467086,13.5663658 2.12793776,13.4625972 L2.39310359,13.3939796 C2.49290599,13.3698124 2.53972482,13.3631841 2.66457502,13.3455086 C2.9619489,13.3062812 3.24186562,13.3055398 3.56854114,13.3246017 Z M4.99649461,24.8063547 C7.48177599,24.8063547 9.49649461,26.8210734 9.49649461,29.3063547 C9.49649461,31.7916361 7.48177599,33.8063547 4.99649461,33.8063547 C2.51121324,33.8063547 0.496494613,31.7916361 0.496494613,29.3063547 C0.496494613,26.8210734 2.51121324,24.8063547 4.99649461,24.8063547 Z" id="Combined-Shape"></path>
            </g>
        </g>
    </g>
</svg>