<?xml version="1.0" encoding="UTF-8"?>
<svg width="45px" height="52px" viewBox="0 0 45 52" version="1.1" xmlns="http://www.w3.org/2000/svg" xmlns:xlink="http://www.w3.org/1999/xlink">
    <!-- Generator: Sketch 60.1 (88133) - https://sketch.com -->
    <title>Staff</title>
    <desc>Created with Sketch.</desc>
    <g  stroke="none" stroke-width="1" fill="none" fill-rule="evenodd">
        <g  transform="translate(-832.000000, -2691.000000)" fill="none" fill-rule="nonzero">
            <g id="Staff" transform="translate(832.000000, 2691.000000)">
                <path d="M22.05,31.2804878 C35.0508119,31.2804878 44.1,38.5792422 44.1,48.797561 C44.1,50.1243375 43.0890948,51.2099509 41.8110882,51.2946771 L41.65,51.3 L2.45,51.3 C1.09690236,51.3 0,50.1796199 0,48.797561 C0,38.5792422 9.04918811,31.2804878 22.05,31.2804878 Z M36.075,43.199 L26.1,43.199 L26.1,46.4695714 C26.1,46.8386357 26.3742536,47.1436446 26.730079,47.1919165 L26.829,47.1985714 L35.346,47.1985714 C35.7486156,47.1985714 36.075,46.872187 36.075,46.4695714 L36.075,46.4695714 L36.075,43.199 Z M35.346,39.6 L26.829,39.6 C26.4263844,39.6 26.1,39.9263844 26.1,40.329 L26.1,40.329 L26.1,41.4 L36.075,41.4 L36.075,40.329 C36.075,39.9599357 35.8007464,39.6549268 35.444921,39.6066549 L35.346,39.6 Z M22.05,0 C29.492037,0 35.525,6.16209063 35.525,13.7634146 C35.525,21.3647386 29.492037,27.5268293 22.05,27.5268293 C14.607963,27.5268293 8.575,21.3647386 8.575,13.7634146 C8.575,6.16209063 14.607963,0 22.05,0 Z" id="Combined-Shape"></path>
            </g>
        </g>
    </g>
</svg>