<?xml version="1.0" encoding="UTF-8"?>
<svg width="45px" height="45px" viewBox="0 0 45 45" version="1.1" xmlns="http://www.w3.org/2000/svg" xmlns:xlink="http://www.w3.org/1999/xlink">
    <!-- Generator: Sketch 60.1 (88133) - https://sketch.com -->
    <title>Telephone-contacts</title>
    <desc>Created with Sketch.</desc>
    <g  stroke="none" stroke-width="1" fill="none" fill-rule="evenodd">
        <g  transform="translate(-1222.000000, -2379.000000)" fill="none" fill-rule="nonzero">
            <g id="Telephone-contacts" transform="translate(1222.000000, 2379.000000)">
                <path d="M5.07488806,1.20959287 L3.36401335,2.96674336 C-0.312901441,6.56890784 -0.965051843,11.5213285 1.35559905,17.6160572 C1.39594429,17.7220159 1.43176619,17.8296422 1.4629677,17.9386443 L1.56796281,18.2896923 C2.90694826,22.5785926 6.36672247,27.4259819 11.9377233,32.884315 C17.4897105,38.3240189 23.5850172,42.2129008 30.2184552,44.5417323 C31.0000768,44.8161397 31.8300533,44.9257206 32.6561098,44.8635729 L33.0493824,44.8286869 C36.0525866,44.5199669 38.6167717,43.3290955 40.7200689,41.2683354 C40.9718938,41.0216034 41.2036358,40.7630684 41.4150198,40.4928189 L43.8441217,37.7817282 C43.8814224,37.7400604 43.9179469,37.6974911 43.9535641,37.654168 C45.356506,35.9476953 45.1104457,33.4270167 43.4039729,32.0240748 L36.2929722,26.1779099 L36.1221589,26.0449345 C34.4466058,24.8109419 32.083978,25.066908 30.7146097,26.6658531 L27.8029434,30.0628984 L27.6116035,30.0494165 C27.1387557,30.0127035 26.7900538,29.9650908 26.5764878,29.9105144 L26.3541441,29.8495772 C22.2989677,28.6654446 15.4317936,22.8031047 13.7694082,17.7729131 L13.7249434,17.6318984 L13.7359212,17.6261661 C14.0832904,17.4114181 14.3988481,17.1423314 14.6710063,16.8245454 L18.3348106,12.545254 C19.7377525,10.8387813 19.4916921,8.31810266 17.7852194,6.91516076 L10.4810523,0.910188128 C8.87503875,-0.410163343 6.52527944,-0.280028733 5.07488806,1.20959287 Z" id="Combined-Shape-Copy-4"></path>
            </g>
        </g>
    </g>
</svg>