<?xml version="1.0" encoding="UTF-8"?>
<svg width="41px" height="41px" viewBox="0 0 41 41" version="1.1" xmlns="http://www.w3.org/2000/svg" xmlns:xlink="http://www.w3.org/1999/xlink">
    <!-- Generator: Sketch 60.1 (88133) - https://sketch.com -->
    <title>Tick-box</title>
    <desc>Created with Sketch.</desc>
    <g  stroke="none" stroke-width="1" fill="none" fill-rule="evenodd">
        <g  transform="translate(-1228.000000, -2542.000000)" fill="none">
            <g id="Tick-box" transform="translate(1228.000000, 2542.000000)">
                <path d="M38,0 C39.6568542,-3.04359188e-16 41,1.34314575 41,3 L41,38 C41,39.6568542 39.6568542,41 38,41 L3,41 C1.34314575,41 2.02906125e-16,39.6568542 0,38 L0,3 C-2.02906125e-16,1.34314575 1.34314575,3.04359188e-16 3,0 L38,0 Z M32.1407092,12.8550161 C30.9853322,11.7244672 29.1009458,11.7136849 27.9318143,12.8309333 L27.9318143,12.8309333 L17.3630959,22.9305411 L13.0557734,18.8628828 L12.9113613,18.7350414 C11.7303404,17.7557639 9.94967639,17.819183 8.84709594,18.9107627 C7.69857464,20.0478249 7.72074275,21.8699304 8.89660979,22.9805492 L8.89660979,22.9805492 L17.3871984,31 L32.1158045,16.925013 L32.2505415,16.7876488 C33.2839616,15.6630953 33.2498712,13.940343 32.1407092,12.8550161 Z" id="Combined-Shape"></path>
            </g>
        </g>
    </g>
</svg>