<?xml version="1.0" encoding="UTF-8"?>
<svg width="30px" height="30px" viewBox="0 0 30 30" version="1.1" xmlns="http://www.w3.org/2000/svg" xmlns:xlink="http://www.w3.org/1999/xlink">
    <!-- Generator: Sketch 60.1 (88133) - https://sketch.com -->
    <title>Accesibility</title>
    <desc>Created with Sketch.</desc>
    <g stroke="none" stroke-width="1" fill-rule="evenodd">
        <g transform="translate(-1033.000000, -1862.000000)" fill-rule="nonzero">
            <g transform="translate(1033.000000, 1862.000000)">
                <path d="M15,0 C23.2842712,0 30,6.71572875 30,15 C30,23.2842712 23.2842712,30 15,30 C6.71572875,30 0,23.2842712 0,15 C0,6.71572875 6.71572875,0 15,0 Z M22.4487374,11.9522192 C22.2479349,11.2552703 21.5154135,10.851707 20.812605,11.0508352 C16.9327804,12.1501143 13.0672196,12.1501143 9.187395,11.0508352 C8.48458647,10.851707 7.75206506,11.2552703 7.55126262,11.9522192 C7.35046018,12.6491681 7.75741653,13.3755822 8.46022505,13.5747105 C9.89549506,13.9813686 11.3323143,14.2540081 12.7700075,14.3916413 C12.6511115,17.3479091 12.0942136,20.3069944 11.0975082,23.2721806 C10.8663673,23.9598221 11.2411208,24.7030803 11.9345437,24.9322941 C12.6279666,25.1615079 13.3774737,24.7898789 13.6086146,24.1022374 C14.1940722,22.3605083 14.6394518,20.6169693 14.9424862,18.8742184 L14.9424862,18.8742184 L15,18.8749475 L15.0551791,18.8721509 C15.3601891,20.6169693 15.8055687,22.3605083 16.3910263,24.1022374 C16.6221673,24.7898789 17.3716743,25.1615079 18.0650972,24.9322941 C18.7585201,24.7030803 19.1332737,23.9598221 18.9021327,23.2721806 C17.9054273,20.3069944 17.3485294,17.3479091 17.229338,14.3927253 C18.667019,14.2541346 20.1041719,13.981463 21.5397749,13.5747105 C22.2425835,13.3755822 22.6495398,12.6491681 22.4487374,11.9522192 Z M15,6 C13.6192881,6 12.5,7.11928813 12.5,8.5 C12.5,9.88071187 13.6192881,11 15,11 C16.3807119,11 17.5,9.88071187 17.5,8.5 C17.5,7.11928813 16.3807119,6 15,6 Z" id="Combined-Shape"></path>
            </g>
        </g>
    </g>
</svg>