<?xml version="1.0" encoding="UTF-8"?>
<svg width="16px" height="26px" viewBox="0 0 16 26" version="1.1" xmlns="http://www.w3.org/2000/svg" xmlns:xlink="http://www.w3.org/1999/xlink">
    <!-- Generator: Sketch 60.1 (88133) - https://sketch.com -->
    <title>Bulb</title>
    <desc>Created with Sketch.</desc>
    <g stroke="none" stroke-width="1" fill="none" fill-rule="evenodd">
        <g transform="translate(-1034.000000, -2142.000000)" fill="none">
            <path d="M1045,2165 C1045.55228,2165 1046,2165.44772 1046,2166 L1046,2166.5 C1046,2167.05228 1045.55228,2167.5 1045,2167.5 L1039,2167.5 C1038.44772,2167.5 1038,2167.05228 1038,2166.5 L1038,2166 C1038,2165.44772 1038.44772,2165 1039,2165 L1045,2165 Z M1045,2162 C1045.55228,2162 1046,2162.44772 1046,2163 L1046,2163.5 C1046,2164.05228 1045.55228,2164.5 1045,2164.5 L1039,2164.5 C1038.44772,2164.5 1038,2164.05228 1038,2163.5 L1038,2163 C1038,2162.44772 1038.44772,2162 1039,2162 L1045,2162 Z M1042,2142 C1046.20232,2142 1050,2145.91666 1050,2150.26389 C1050,2152.05968 1049.61518,2153.33463 1048.51913,2155.1375 L1048.31826,2155.46135 L1047.22448,2157.16421 L1047.03133,2157.47961 C1046.73051,2157.9783 1046.4893,2158.41671 1046.26624,2158.8697 C1046.12321,2159.16017 1045.99174,2159.46385 1045.84425,2159.84591 L1045.75361,2160.08507 L1045.53251,2160.69152 C1045.40295,2161.04689 1045.08586,2161.29515 1044.71736,2161.34125 L1044.59281,2161.349 L1039.43981,2161.348 C1039.06451,2161.34793 1038.72472,2161.13827 1038.55394,2160.81165 L1038.50346,2160.69857 L1038.33568,2160.25005 L1038.23611,2159.99497 C1038.01824,2159.44583 1037.84037,2159.06131 1037.63251,2158.6882 L1037.44997,2158.3669 L1037.44997,2158.3669 L1037.2573,2158.04021 L1036.90302,2157.47299 L1035.56891,2155.41484 L1035.3538,2155.06538 L1035.17694,2154.7617 C1034.3302,2153.26468 1034,2152.00226 1034,2150.26389 C1034,2145.91666 1037.79768,2142 1042,2142 Z M1042,2144 C1038.91629,2144 1036,2147.00766 1036,2150.26389 C1036,2151.55865 1036.20819,2152.44706 1036.77431,2153.51581 L1036.91137,2153.76591 L1037.06902,2154.03708 L1037.25919,2154.34599 L1038.58517,2156.39119 C1038.63021,2156.46179 1038.67224,2156.52799 1038.71141,2156.58999 L1038.76801,2156.67987 L1038.97208,2157.01088 C1039.11524,2157.24937 1039.25036,2157.4827 1039.37969,2157.71487 C1039.59723,2158.10537 1039.78527,2158.50048 1039.992,2159.00225 L1040.09715,2159.26251 L1040.13,2159.348 L1043.894,2159.349 L1043.97997,2159.12187 C1044.08093,2158.86056 1044.17664,2158.62831 1044.27378,2158.40972 L1044.37165,2158.19511 L1044.47197,2157.98618 C1044.67121,2157.58157 1044.8829,2157.18832 1045.12995,2156.76483 L1045.32223,2156.44089 L1045.53021,2156.10168 L1046.63146,2154.38681 C1047.68692,2152.71658 1048,2151.76047 1048,2150.26389 C1048,2147.00766 1045.08371,2144 1042,2144 Z" id="Bulb"></path>
        </g>
    </g>
</svg>