<?xml version="1.0" encoding="UTF-8"?>
<svg width="23px" height="28px" viewBox="0 0 23 28" version="1.1" xmlns="http://www.w3.org/2000/svg" xmlns:xlink="http://www.w3.org/1999/xlink">
    <!-- Generator: Sketch 60.1 (88133) - https://sketch.com -->
    <title>Calendar</title>
    <desc>Created with Sketch.</desc>
    <g stroke="none" stroke-width="1" fill="none" fill-rule="evenodd">
        <g transform="translate(-650.000000, -1993.000000)" fill="none" fill-rule="nonzero">
            <g transform="translate(650.000000, 1993.000000)">
                <path d="M21,8 C22.1045695,8 23,8.8954305 23,10 L23,10 L23,25 C23,26.6568542 21.6568542,28 20,28 L20,28 L3,28 C1.34314575,28 0,26.6568542 0,25 L0,25 L0,10 C0,8.8954305 0.8954305,8 2,8 L2,8 Z M2,25 C2,25.5522847 2.44771525,26 3,26 L3,26 L7,26 L7,22.499 L2,22.499 Z M14,22.499 L9,22.499 L9,26 L14,26 L14,22.499 Z M21,22.499 L16,22.499 L16,26 L20,26 C20.5128358,26 20.9355072,25.6139598 20.9932723,25.1166211 L21,25 L21,22.499 Z M21,20.499 L21,15.749 L16,15.749 L16,20.499 L21,20.499 Z M2,20.499 L7,20.499 L7,15.75 L2,15.75 L2,20.499 Z M14,15.749 L9,15.75 L9,20.499 L14,20.499 L14,15.749 Z M2,10 L2,13.75 L7,13.75 L7,10 L2,10 Z M7.5,0 C8.01283584,0 8.43550716,0.38604019 8.49327227,0.883378875 L8.5,1 L8.5,2 L15,2 L15,1 C15,0.487164161 15.3860402,0.0644928393 15.8833789,0.00672773133 L16,0 L18,0 C18.5128358,0 18.9355072,0.38604019 18.9932723,0.883378875 L19,1 L19,2 L22,2 C22.5128358,2 22.9355072,2.38604019 22.9932723,2.88337887 L23,3 L23,6 C23,6.51283584 22.6139598,6.93550716 22.1166211,6.99327227 L22,7 L1,7 C0.487164161,7 0.0644928393,6.61395981 0.00672773133,6.11662113 L0,6 L0,3 C0,2.48716416 0.38604019,2.06449284 0.883378875,2.00672773 L1,2 L4.5,2 L4.5,1 C4.5,0.487164161 4.88604019,0.0644928393 5.38337887,0.00672773133 L5.5,0 L7.5,0 Z M16,13.749 L21,13.749 L21,10 L16,10 L16,13.749 Z M9,10 L9,13.75 L14,13.749 L14,10 L9,10 Z" id="Combined-Shape"></path>
            </g>
        </g>
    </g>
</svg>