<?xml version="1.0" encoding="UTF-8"?>
<svg width="17px" height="19px" viewBox="0 0 17 19" version="1.1" xmlns="http://www.w3.org/2000/svg" xmlns:xlink="http://www.w3.org/1999/xlink">
    <!-- Generator: Sketch 60.1 (88133) - https://sketch.com -->
    <title>Chevron-start</title>
    <desc>Created with Sketch.</desc>
    <g stroke="none" stroke-width="1" fill="none" fill-rule="evenodd">
        <g transform="translate(-1238.000000, -1309.000000)" fill="none" fill-rule="nonzero">
            <g transform="translate(1246.500000, 1318.500000) scale(-1, 1) translate(-1246.500000, -1318.500000) translate(1238.000000, 1309.000000)">
                <path d="M3.315,0.935 L10.815,8.435 C11.0957798,8.71807825 11.2523051,9.10129552 11.2500251,9.5 C11.2523051,9.89870448 11.0957798,10.2819218 10.815,10.565 L3.315,18.065 C2.93451215,18.4454879 2.37993902,18.5940853 1.86018294,18.4548171 C1.34042687,18.3155488 0.934451165,17.9095731 0.795182945,17.3898171 C0.655914725,16.870061 0.804512147,16.3154879 1.185,15.935 L7.635,9.5 L1.185,3.065 C0.596816741,2.47681674 0.596816741,1.52318326 1.185,0.935 C1.77318326,0.346816741 2.72681674,0.346816741 3.315,0.935 Z M15.5,0 C16.3284271,-1.52179594e-16 17,0.671572875 17,1.5 L17,16.5 C17,17.3284271 16.3284271,18 15.5,18 C14.6715729,18 14,17.3284271 14,16.5 L14,1.5 C14,0.671572875 14.6715729,1.52179594e-16 15.5,0 Z" id="Combined-Shape"></path>
            </g>
        </g>
    </g>
</svg>