<?xml version="1.0" encoding="UTF-8"?>
<svg width="12px" height="19px" viewBox="0 0 12 19" version="1.1" xmlns="http://www.w3.org/2000/svg" xmlns:xlink="http://www.w3.org/1999/xlink">
    <!-- Generator: Sketch 60.1 (88133) - https://sketch.com -->
    <title>Chevron-left</title>
    <desc>Created with Sketch.</desc>
    <g stroke="none" stroke-width="1" fill="none" fill-rule="evenodd">
        <g transform="translate(-480.000000, -1426.000000)" fill="none" fill-rule="nonzero">
            <g transform="translate(486.000000, 1435.500000) scale(-1, 1) translate(-486.000000, -1435.500000) translate(480.000000, 1426.000000)">
                <path d="M11.2500251,9.5 C11.2523051,9.89870448 11.0957798,10.2819218 10.815,10.565 L3.315,18.065 C2.93451215,18.4454879 2.37993902,18.5940853 1.86018294,18.4548171 C1.34042687,18.3155488 0.934451165,17.9095731 0.795182945,17.3898171 C0.655914725,16.870061 0.804512147,16.3154879 1.185,15.935 L7.635,9.5 L1.185,3.065 C0.596816741,2.47681674 0.596816741,1.52318326 1.185,0.935 C1.77318326,0.346816741 2.72681674,0.346816741 3.315,0.935 L10.815,8.435 C11.0957798,8.71807825 11.2523051,9.10129552 11.2500251,9.5 L11.2500251,9.5 Z" ></path>
            </g>
        </g>
    </g>
</svg>