<?xml version="1.0" encoding="UTF-8"?>
<svg width="30px" height="30px" viewBox="0 0 30 30" version="1.1" xmlns="http://www.w3.org/2000/svg" xmlns:xlink="http://www.w3.org/1999/xlink">
    <!-- Generator: Sketch 60.1 (88133) - https://sketch.com -->
    <title>Cross-circle</title>
    <desc>Created with Sketch.</desc>
    <g stroke="none" stroke-width="1" fill="none" fill-rule="evenodd">
        <g transform="translate(-1230.000000, -1644.000000)" fill="none" fill-rule="nonzero">
            <g transform="translate(1230.000000, 1644.000000)">
                <path d="M15,0 C23.2842712,0 30,6.71572875 30,15 C30,23.2842712 23.2842712,30 15,30 C6.71572875,30 0,23.2842712 0,15 C0,6.71572875 6.71572875,0 15,0 Z M10.7461538,8.48648649 C10.1,7.83783784 9.13076923,7.83783784 8.48461538,8.48648649 C7.83846154,9.02702703 7.83846154,10.1081081 8.48461538,10.7567568 L8.48461538,10.7567568 L12.738,15.027 L8.48461538,19.2972973 C7.83846154,19.9459459 7.83846154,20.9189189 8.48461538,21.5675676 C8.80769231,21.8918919 9.23846154,22 9.66923077,22 C10.1,22 10.4230769,21.8918919 10.7461538,21.5675676 L10.7461538,21.5675676 L15,17.297 L19.2538462,21.5675676 C19.5769231,21.8918919 20.0076923,22 20.4384615,22 C20.8692308,22 21.1923077,21.8918919 21.5153846,21.5675676 C22.1615385,20.9189189 22.1615385,19.9459459 21.5153846,19.2972973 L21.5153846,19.2972973 L17.261,15.027 L21.5153846,10.7567568 C22.1615385,10.1081081 22.1615385,9.13513514 21.5153846,8.48648649 C20.8692308,7.83783784 19.9,7.83783784 19.2538462,8.48648649 L19.2538462,8.48648649 L15,12.756 Z" id="Combined-Shape"></path>
            </g>
        </g>
    </g>
</svg>