<?xml version="1.0" encoding="UTF-8"?>
<svg width="21px" height="24px" viewBox="0 0 21 24" version="1.1" xmlns="http://www.w3.org/2000/svg" xmlns:xlink="http://www.w3.org/1999/xlink">
    <!-- Generator: Sketch 60.1 (88133) - https://sketch.com -->
    <title>Edit</title>
    <desc>Created with Sketch.</desc>
    <g stroke="none" stroke-width="1" fill="none" fill-rule="evenodd">
        <g transform="translate(-477.000000, -1995.000000)" fill="none" fill-rule="nonzero">
            <g transform="translate(477.000000, 1995.000000)">
                <path d="M12.2055455,0.379015221 C12.8686149,0.379015221 13.4061389,0.907788976 13.4061389,1.56006446 C13.4061389,2.1739708 12.9299931,2.67847768 12.3211706,2.73570719 L12.2055455,2.7411137 L2.40118696,2.7411137 L2.40118696,21.6379015 L17.6087044,21.6379015 L17.6087044,10.4301676 C17.6087044,9.81626129 18.0848502,9.3117544 18.6936727,9.25452489 L18.8092979,9.24911838 C19.4333632,9.24911838 19.9462188,9.71751313 20.0043954,10.3164247 L20.0098913,10.4301676 L20.0098913,22.8189508 C20.0098913,23.4328571 19.5337455,23.937364 18.924923,23.9945935 L18.8092979,24 L1.20059348,24 C0.576528097,24 0.0636725322,23.5316053 0.00549597924,22.9326937 L0,22.8189508 L0,1.56006446 C0,0.946158122 0.476145836,0.441651239 1.08496832,0.384421732 L1.20059348,0.379015221 L12.2055455,0.379015221 Z M15.0978971,2.71784784 L18.7166911,5.75437651 L11.2088161,14.7019135 L11.1445092,14.7660488 C11.0981619,14.8047182 11.0452845,14.8349198 10.9884088,14.8548962 L10.9884088,14.8548962 L7.49080841,16.0833557 L7.41228424,16.1041086 C7.10020569,16.1599325 6.82071235,15.8965289 6.87504147,15.5666659 L6.87504147,15.5666659 L7.47748603,11.9088821 L7.5000926,11.8216327 C7.52033054,11.7650138 7.55068712,11.711956 7.58987125,11.6652582 L7.58987125,11.6652582 L15.0978971,2.71784784 Z M17.3170039,0.0847540467 C17.4953423,-0.0655513666 17.7551021,-0.0750413414 17.9327633,0.0740340715 L17.9327633,0.0740340715 L20.8279191,2.50335829 L20.8878692,2.56402162 C21.0298848,2.73762918 21.0286359,2.99910797 20.8732078,3.1843399 L20.8732078,3.1843399 L19.7451512,4.5287054 L16.1263573,1.49217673 L17.254263,0.147684633 Z" id="Combined-Shape"></path>
            </g>
        </g>
    </g>
</svg>