<?xml version="1.0" encoding="UTF-8"?>
<svg width="28px" height="28px" viewBox="0 0 28 28" version="1.1" xmlns="http://www.w3.org/2000/svg" xmlns:xlink="http://www.w3.org/1999/xlink">
    <!-- Generator: Sketch 60.1 (88133) - https://sketch.com -->
    <title>Graph</title>
    <desc>Created with Sketch.</desc>
    <g  stroke="none" stroke-width="1" fill="none" fill-rule="evenodd">
        <g  transform="translate(-840.000000, -2142.000000)" fill="none" fill-rule="nonzero">
            <g id="Graph" transform="translate(840.000000, 2142.000000)">
                <path d="M1,28 C0.44771525,28 0,27.5522847 0,27 L0,27 L0,1 C0,0.44771525 0.44771525,0 1,0 L1,0 L27,0 C27.5522847,0 28,0.44771525 28,1 L28,1 L28,27 C28,27.5522847 27.5522847,28 27,28 L27,28 Z M26,2 L2,2 L2,26 L4.5,26 L4.5,8 C4.5,7.48716416 4.88604019,7.06449284 5.38337887,7.00672773 L5.5,7 L8.5,7 C9.05228475,7 9.5,7.44771525 9.5,8 L9.5,8 L9.5,26 L11.5,26 L11.5,12 C11.5,11.4871642 11.8860402,11.0644928 12.3833789,11.0067277 L12.5,11 L15.5,11 C16.0522847,11 16.5,11.4477153 16.5,12 L16.5,12 L16.5,26 L18.5,26 L18.5,17 C18.5,16.4871642 18.8860402,16.0644928 19.3833789,16.0067277 L19.5,16 L22.5,16 C23.0522847,16 23.5,16.4477153 23.5,17 L23.5,17 L23.5,26 L26,26 L26,2 Z" id="Combined-Shape"></path>
            </g>
        </g>
    </g>
</svg>