<?xml version="1.0" encoding="UTF-8"?>
<svg width="22px" height="22px" viewBox="0 0 22 22" version="1.1" xmlns="http://www.w3.org/2000/svg" xmlns:xlink="http://www.w3.org/1999/xlink">
    <!-- Generator: Sketch 60.1 (88133) - https://sketch.com -->
    <title>Home</title>
    <desc>Created with Sketch.</desc>
    <g  stroke="none" stroke-width="1" fill="none" fill-rule="evenodd">
        <g  transform="translate(-478.000000, -1866.000000)" fill="none" fill-rule="nonzero">
            <g id="Home" transform="translate(478.000000, 1866.000000)">
                <path d="M0.302294993,9.11288536 L0.231894018,9.18147254 C-0.270000472,9.72538066 0.0917661926,10.6656 0.847713762,10.6656 L3.17427936,10.6656 L3.17427936,21.12 C3.17427936,21.6060914 3.55317847,22 4.02050228,22 L7.61610365,21.99912 L7.71475064,21.9931773 C8.13543383,21.942257 8.46192844,21.5703405 8.46192844,21.11912 L8.46192844,14.08 L13.5380716,14.08 L13.5380716,21.11912 C13.5380716,21.6050497 13.916728,21.9990056 14.3838963,21.99912 L17.9794977,22 L18.0781792,21.9941019 C18.4990168,21.9433556 18.8257206,21.5713706 18.8257206,21.12 L18.8257206,10.6656 L21.1522862,10.6656 C21.9411011,10.6656 22.3007133,9.6418451 21.697705,9.11288536 L11.5454188,0.207285364 C11.230348,-0.0690951214 10.769652,-0.0690951214 10.4545812,0.207285364 L0.302294993,9.11288536 Z" id="Combined-Shape"></path>
            </g>
        </g>
    </g>
</svg>