<?xml version="1.0" encoding="UTF-8"?>
<svg width="23px" height="26px" viewBox="0 0 23 26" version="1.1" xmlns="http://www.w3.org/2000/svg" xmlns:xlink="http://www.w3.org/1999/xlink">
    <!-- Generator: Sketch 60.1 (88133) - https://sketch.com -->
    <title>Log-out</title>
    <desc>Created with Sketch.</desc>
    <g  stroke="none" stroke-width="1" fill="none" fill-rule="evenodd">
        <g  transform="translate(-839.000000, -1994.000000)" fill="none" fill-rule="nonzero">
            <g id="Log-out" transform="translate(839.000000, 1994.000000)">
                <path d="M21.6981132,0 C22.3748306,0 22.9309555,0.515569672 22.9940403,1.17480132 L23,1.3 L23,24.7 C23,25.3757366 22.483682,25.9310555 21.8234936,25.994049 L21.6981132,26 L2.60377358,26 C1.9270562,26 1.37093134,25.4844303 1.30784646,24.8251987 L1.30188679,24.7 L1.30188679,18.6333333 C1.30188679,17.9153632 1.88476136,17.3333333 2.60377358,17.3333333 C3.28049097,17.3333333 3.83661583,17.848903 3.89970071,18.5081347 L3.90566038,18.6333333 L3.90566038,23.4 L20.3962264,23.4 L20.3962264,2.6 L3.90566038,2.6 L3.90566038,7.36666667 C3.90566038,8.0424033 3.38934242,8.59772219 2.72915397,8.66071563 L2.60377358,8.66666667 C1.9270562,8.66666667 1.37093134,8.15109699 1.30784646,7.49186534 L1.30188679,7.36666667 L1.30188679,1.3 C1.30188679,0.624263365 1.81820475,0.0689444789 2.4783932,0.00595103432 L2.60377358,0 L21.6981132,0 Z M10.1477907,5.16994995 L16.9631754,12.0263723 C17.2183251,12.2851595 17.3605625,12.6354928 17.3584906,12.9999843 C17.3605625,13.3644758 17.2183251,13.7148091 16.9631754,13.9735963 L10.1477907,20.8300187 C9.80203456,21.1778567 9.298084,21.313703 8.82577232,21.1863854 C8.35346064,21.0590678 7.98454322,20.687929 7.85798769,20.2127734 C7.73143215,19.7376178 7.8664653,19.2306328 8.21222145,18.8827947 L12.777,14.3 L1.30188679,14.3 C0.582874571,14.3 0,13.7179702 0,13 C0,12.3242634 0.516317959,11.7689445 1.17650641,11.705951 L1.30188679,11.7 L12.779,11.7 L8.21222145,7.11717391 C7.67772875,6.57946286 7.67772875,5.707661 8.21222145,5.16994995 C8.74671414,4.6322389 9.61329802,4.6322389 10.1477907,5.16994995 Z" id="Combined-Shape"></path>
            </g>
        </g>
    </g>
</svg>