<?xml version="1.0" encoding="UTF-8"?>
<svg width="26px" height="20px" viewBox="0 0 26 20" version="1.1" xmlns="http://www.w3.org/2000/svg" xmlns:xlink="http://www.w3.org/1999/xlink">
    <!-- Generator: Sketch 60.1 (88133) - https://sketch.com -->
    <title>Mail</title>
    <desc>Created with Sketch.</desc>
    <g  stroke="none" stroke-width="1" fill="none" fill-rule="evenodd">
        <g  transform="translate(-644.000000, -2146.000000)" fill="none" fill-rule="nonzero">
            <g id="Mail" transform="translate(644.000000, 2146.000000)">
                <path d="M23,0 C24.5976809,0 25.9036609,1.24891996 25.9949073,2.82372721 L26,3 L26,17 C26,18.5976809 24.75108,19.9036609 23.1762728,19.9949073 L23,20 L3,20 C1.40231912,20 0.0963391206,18.75108 0.00509269341,17.1762728 L0,17 L0,3 C0,1.40231912 1.24891996,0.0963391206 2.82372721,0.00509269341 L3,0 L23,0 Z M15.1213203,12.2928932 C13.9966104,13.4176032 12.2010475,13.4625916 11.0226693,12.4278584 L10.8786797,12.2928932 L2,3.41421356 L2,17 C2,17.5128358 2.38604019,17.9355072 2.88337887,17.9932723 L3,18 L23,18 C23.5128358,18 23.9355072,17.6139598 23.9932723,17.1166211 L24,17 L24,3.413 L15.1213203,12.2928932 Z M22.584,2 L3.415,2 L12.2928932,10.8786797 C12.6533772,11.2391636 13.2206082,11.2668932 13.6128994,10.9618683 L13.7071068,10.8786797 L22.584,2 Z" id="Combined-Shape"></path>
            </g>
        </g>
    </g>
</svg>