<?xml version="1.0" encoding="UTF-8"?>
<svg width="19px" height="14px" viewBox="0 0 19 14" version="1.1" xmlns="http://www.w3.org/2000/svg" xmlns:xlink="http://www.w3.org/1999/xlink">
    <!-- Generator: Sketch 60.1 (88133) - https://sketch.com -->
    <title>Combined Shape</title>
    <desc>Created with Sketch.</desc>
    <g  stroke="none" stroke-width="1" fill="none" fill-rule="evenodd">
        <g  transform="translate(-481.000000, -2275.000000)" fill="none" fill-rule="nonzero">
            <path d="M499,2286.5 C499.552285,2286.5 500,2286.94772 500,2287.5 C500,2288.01284 499.61396,2288.43551 499.116621,2288.49327 L499,2288.5 L482,2288.5 C481.447715,2288.5 481,2288.05228 481,2287.5 C481,2286.98716 481.38604,2286.56449 481.883379,2286.50673 L482,2286.5 L499,2286.5 Z M499,2280.75 C499.552285,2280.75 500,2281.19772 500,2281.75 C500,2282.26284 499.61396,2282.68551 499.116621,2282.74327 L499,2282.75 L482,2282.75 C481.447715,2282.75 481,2282.30228 481,2281.75 C481,2281.23716 481.38604,2280.81449 481.883379,2280.75673 L482,2280.75 L499,2280.75 Z M499,2275 C499.552285,2275 500,2275.44772 500,2276 C500,2276.51284 499.61396,2276.93551 499.116621,2276.99327 L499,2277 L482,2277 C481.447715,2277 481,2276.55228 481,2276 C481,2275.48716 481.38604,2275.06449 481.883379,2275.00673 L482,2275 L499,2275 Z" id="Combined-Shape"></path>
        </g>
    </g>
</svg>