<?xml version="1.0" encoding="UTF-8"?>
<svg width="23px" height="28px" viewBox="0 0 23 28" version="1.1" xmlns="http://www.w3.org/2000/svg" xmlns:xlink="http://www.w3.org/1999/xlink">
    <!-- Generator: Sketch 60.1 (88133) - https://sketch.com -->
    <title>Notifications</title>
    <desc>Created with Sketch.</desc>
    <g  stroke="none" stroke-width="1" fill="none" fill-rule="evenodd">
        <g  transform="translate(-1232.000000, -1993.000000)" fill="none" fill-rule="nonzero">
            <g id="Notifications" transform="translate(1227.000000, 1990.000000)">
                <path d="M15.6270852,3 C17.5600818,3 19.1270852,4.56700338 19.1270852,6.5 L19.1270852,6.5 L19.1170852,6.757 L19.2781929,6.82769146 C22.5441445,8.30699663 24.7196969,11.5816979 24.7380681,15.2627837 L24.7380681,15.2627837 L24.7353846,15.5396054 L24.7238037,15.8240856 L24.4840852,20.084 L24.6258863,20.2044447 C25.9677683,21.4054951 26.2556047,23.4199089 25.2763046,24.9541214 L25.2763046,24.9541214 L25.1622681,25.1225476 L24.82978,25.5861823 L24.1201024,25.6625313 C22.830939,25.788379 20.7765574,25.8897923 18.7633128,25.9474881 C18.9966165,26.4149477 19.1270852,26.9422376 19.1270852,27.5 C19.1270852,28.4202075 18.7690673,29.2865818 18.141667,29.934521 C17.4872146,30.6103979 16.5869221,31 15.6270852,31 C14.6660886,31 13.7648091,30.6094535 13.1102023,29.9321424 C12.4842011,29.284429 12.1270852,28.4190504 12.1270852,27.5 C12.1270852,26.9469811 12.2553441,26.4239187 12.4837382,25.9589366 C10.351983,25.9070905 8.09975538,25.8069324 6.72158264,25.6822096 L6.72158264,25.6822096 L6.24948134,25.6345373 C5.55965165,25.2148377 5.437917,25.1407731 5.4609299,25.1317717 L5.4609299,25.1317717 L5.49149802,25.1321871 L5.47188512,25.0960234 L5.41003868,24.9710527 C4.60712706,23.3184741 5.01276473,21.3545294 6.36959969,20.1386317 L6.36959969,20.1386317 L6.38908517,20.121 L6.14854848,15.8240856 L6.13756393,15.5632829 L6.13390146,15.3022746 C6.13390146,11.4533185 8.49139786,8.07137639 11.9502235,6.67503801 L11.9502235,6.67503801 L12.1300852,6.605 L12.1270852,6.5 C12.1270852,4.6314366 13.5913628,3.10487355 15.43505,3.00517886 L15.43505,3.00517886 Z M15.6270852,26 C14.798658,26 14.1270852,26.6715729 14.1270852,27.5 C14.1270852,27.895163 14.2792113,28.2638016 14.5483141,28.5422379 C14.8298595,28.8335484 15.2139864,29 15.6270852,29 C16.0396882,29 16.4233888,28.8339534 16.7048643,28.5432633 C16.9745728,28.2647255 17.1270852,27.8956578 17.1270852,27.5 C17.1270852,26.6715729 16.4555123,26 15.6270852,26 Z M15.6270852,5 C14.798658,5 14.1270852,5.67157288 14.1270852,6.5 C14.1270852,6.66385738 14.1529922,6.822254 14.2030848,6.97170455 L14.2030848,6.97170455 L14.539953,7.97674478 L13.5170115,8.25455182 C10.3637903,9.11089316 8.13390146,11.9861656 8.13390146,15.3022746 C8.13390146,15.4388956 8.1377356,15.5754898 8.14539935,15.7118957 L8.14539935,15.7118957 L8.44804687,21.0986685 L7.8534559,21.5050345 C7.17717566,21.9982035 6.87418116,22.8390361 7.04719691,23.6309338 L7.04719691,23.6309338 L7.06608517,23.704 L7.54473987,23.7422858 C9.54897616,23.8869532 12.7852058,23.9901308 15.1064967,23.9993306 L15.1064967,23.9993306 L15.4361761,24 C17.9403971,24 21.6295459,23.8751108 23.6578345,23.6968514 L23.6578345,23.6968514 L23.6920852,23.693 C24.0183531,23.0068714 23.8524259,22.1778228 23.2876579,21.6872356 L23.2876579,21.6872356 L23.1694138,21.593774 L23.0858626,21.5354076 L22.4217566,21.1440329 L22.7261879,15.7277578 L22.7364902,15.4750477 C22.8156698,12.2209284 20.7248515,9.32110595 17.6597697,8.34481607 L17.6597697,8.34481607 L16.6514536,8.02364719 L17.0291163,7.03510193 C17.0935984,6.86631789 17.1270852,6.68624723 17.1270852,6.5 C17.1270852,5.67157288 16.4555123,5 15.6270852,5 Z" id="Combined-Shape" transform="translate(15.428439, 17.000000) rotate(-20.000000) translate(-15.428439, -17.000000) "></path>
            </g>
        </g>
    </g>
</svg>