<?xml version="1.0" encoding="UTF-8"?>
<svg width="30px" height="30px" viewBox="0 0 30 30" version="1.1" xmlns="http://www.w3.org/2000/svg" xmlns:xlink="http://www.w3.org/1999/xlink">
    <!-- Generator: Sketch 60.1 (88133) - https://sketch.com -->
    <title>Plus-circle</title>
    <desc>Created with Sketch.</desc>
    <g  stroke="none" stroke-width="1" fill="none" fill-rule="evenodd">
        <g  transform="translate(-837.000000, -1644.000000)" fill="none" fill-rule="nonzero">
            <g id="Plus-circle" transform="translate(837.000000, 1644.000000)">
                <path d="M15,0 C23.2842712,0 30,6.71572875 30,15 C30,23.2842712 23.2842712,30 15,30 C6.71572875,30 0,23.2842712 0,15 C0,6.71572875 6.71572875,0 15,0 Z M15,7.5 C14.1715729,7.5 13.5,8.17157288 13.5,9 L13.5,9 L13.499,13.499 L9,13.5 L8.85553999,13.5068666 C8.09488808,13.5795513 7.5,14.2203039 7.5,15 C7.5,15.8284271 8.17157288,16.5 9,16.5 L9,16.5 L13.499,16.499 L13.5,21 L13.5068666,21.14446 C13.5795513,21.9051119 14.2203039,22.5 15,22.5 C15.8284271,22.5 16.5,21.8284271 16.5,21 L16.5,21 L16.499,16.499 L21,16.5 L21.14446,16.4931334 C21.9051119,16.4204487 22.5,15.7796961 22.5,15 C22.5,14.1715729 21.8284271,13.5 21,13.5 L21,13.5 L16.499,13.499 L16.5,9 L16.4931334,8.85553999 C16.4204487,8.09488808 15.7796961,7.5 15,7.5 Z" id="Combined-Shape"></path>
            </g>
        </g>
    </g>
</svg>