<?xml version="1.0" encoding="UTF-8"?>
<svg width="30px" height="30px" viewBox="0 0 30 30" version="1.1" xmlns="http://www.w3.org/2000/svg" xmlns:xlink="http://www.w3.org/1999/xlink">
    <!-- Generator: Sketch 60.1 (88133) - https://sketch.com -->
    <title>Question circle</title>
    <desc>Created with Sketch.</desc>
    <g  stroke="none" stroke-width="1" fill="none" fill-rule="evenodd">
        <g  transform="translate(-841.000000, -1862.000000)" fill="none" fill-rule="nonzero">
            <g id="Question-circle" transform="translate(841.000000, 1862.000000)">
                <path d="M15,0 C23.2842712,0 30,6.71572875 30,15 C30,23.2842712 23.2842712,30 15,30 C6.71572875,30 0,23.2842712 0,15 C0,6.71572875 6.71572875,0 15,0 Z M15.759,21.646 L14.329,21.646 C14.1823333,21.646 14.0613333,21.6936667 13.966,21.789 C13.8897333,21.8652667 13.8439733,21.95796 13.82872,22.06708 L13.823,22.152 L13.823,23.494 C13.823,23.6406667 13.8706667,23.7616667 13.966,23.857 C14.0422667,23.9332667 14.13496,23.9790267 14.24408,23.99428 L14.329,24 L15.759,24 C15.9056667,24 16.0303333,23.9523333 16.133,23.857 C16.2151333,23.7807333 16.2644133,23.68804 16.28084,23.57892 L16.287,23.494 L16.287,22.152 C16.287,22.0053333 16.2356667,21.8843333 16.133,21.789 C16.056,21.7175 15.966625,21.6728125 15.864875,21.6549375 L15.759,21.646 Z M15.143,7.38 C14.1163333,7.38 13.207,7.58533333 12.415,7.996 C11.623,8.40666667 11.0106667,8.953 10.578,9.635 C10.1453333,10.317 9.91433333,11.0613333 9.885,11.868 C9.885,12.0146667 9.929,12.132 10.017,12.22 C10.083,12.286 10.1655,12.32725 10.2645,12.34375 L10.369,12.352 L11.425,12.352 C11.733,12.352 11.9236667,12.1906667 11.997,11.868 C12.305,10.108 13.3316667,9.228 15.077,9.228 C15.825,9.228 16.4813333,9.426 17.046,9.822 C17.6106667,10.218 17.893,10.7533333 17.893,11.428 C17.893,11.8826667 17.761,12.3006667 17.497,12.682 C17.233,13.0633333 16.815,13.5473333 16.243,14.134 C15.539,14.8526667 15.0036667,15.4906667 14.637,16.048 C14.3110741,16.5434074 14.1184156,17.1257284 14.0590247,17.794963 L14.043,18.05 L14.043,18.93 C14.043,19.062 14.087,19.172 14.175,19.26 C14.241,19.326 14.319375,19.36725 14.410125,19.38375 L14.505,19.392 L15.693,19.392 C15.9863333,19.392 16.1696667,19.2233333 16.243,18.886 C16.243,18.6806667 16.2576667,18.3726667 16.287,17.962 C16.331,17.4633333 16.4923333,17.0123333 16.771,16.609 C17.0496667,16.2056667 17.4676667,15.7106667 18.025,15.124 C18.6996667,14.4053333 19.2056667,13.7746667 19.543,13.232 C19.8803333,12.6893333 20.049,12.044 20.049,11.296 C20.049,10.6213333 19.873,9.987 19.521,9.393 C19.169,8.799 18.6226667,8.315 17.882,7.941 C17.1413333,7.567 16.2283333,7.38 15.143,7.38 Z" id="Combined-Shape"></path>
            </g>
        </g>
    </g>
</svg>