<?xml version="1.0" encoding="UTF-8"?>
<svg width="26px" height="26px" viewBox="0 0 26 26" version="1.1" xmlns="http://www.w3.org/2000/svg" xmlns:xlink="http://www.w3.org/1999/xlink">
    <!-- Generator: Sketch 60.1 (88133) - https://sketch.com -->
    <title>Search</title>
    <desc>Created with Sketch.</desc>
    <g  stroke="none" stroke-width="1" fill="none" fill-rule="evenodd">
        <g  transform="translate(-477.000000, -1304.000000)" fill="none" fill-rule="nonzero">
            <g id="Search" transform="translate(477.000000, 1304.000000)">
                <path d="M25.565,23.435 L19.4,17.285 C22.7003582,12.8751542 22.032098,6.66458901 17.8691454,3.05779957 C13.7061927,-0.548989862 7.46376507,-0.325856806 3.56895413,3.56895413 C-0.325856806,7.46376507 -0.548989862,13.7061927 3.05779957,17.8691454 C6.66458901,22.032098 12.8751542,22.7003582 17.285,19.4 L23.435,25.565 C23.7166499,25.848969 24.1000437,26.0086975 24.5,26.0086975 C24.8999563,26.0086975 25.2833501,25.848969 25.565,25.565 C25.848969,25.2833501 26.0086975,24.8999563 26.0086975,24.5 C26.0086975,24.1000437 25.848969,23.7166499 25.565,23.435 Z M3.5,11 C3.5,6.85786438 6.85786438,3.5 11,3.5 C15.1421356,3.5 18.5,6.85786438 18.5,11 C18.5,15.1421356 15.1421356,18.5 11,18.5 C6.85786438,18.5 3.5,15.1421356 3.5,11 Z" id="Shape"></path>
            </g>
        </g>
    </g>
</svg>