<?xml version="1.0" encoding="UTF-8"?>
<svg width="28px" height="29px" viewBox="0 0 28 29" version="1.1" xmlns="http://www.w3.org/2000/svg" xmlns:xlink="http://www.w3.org/1999/xlink">
    <!-- Generator: Sketch 60.1 (88133) - https://sketch.com -->
    <title>Settings</title>
    <desc>Created with Sketch.</desc>
    <g  stroke="none" stroke-width="1" fill-rule="evenodd">
        <g  transform="translate(-666.000000, -1862.000000)" fill-rule="nonzero">
            <g id="Settings" transform="translate(666.000000, 1862.000000)">
                <path d="M16.8132163,0 C17.2237577,0 17.5621367,0.310908611 17.608439,0.711492218 L17.6138393,0.805425754 L17.6138393,4.83172222 L17.7283505,4.87946696 C18.5787037,5.24838352 19.3752494,5.73010009 20.0975803,6.31000698 L20.3649357,6.53204619 L20.4264278,6.58622222 L23.9968116,4.51340073 C24.3227561,4.32409518 24.7259953,4.39157801 24.9751264,4.65345223 L25.0390766,4.72964522 L25.0904228,4.80828949 L27.8926032,9.69171051 C28.097886,10.0494612 27.9994447,10.499793 27.6777682,10.7404194 L27.599609,10.7920884 L23.9019322,12.9404444 L23.9217716,13.0646506 C23.954005,13.3010867 23.9782679,13.5391137 23.9944724,13.7784369 L24.0127245,14.1383568 L24.0188231,14.5 C24.0188231,14.9983539 23.9841672,15.4923484 23.9156783,15.9793649 L23.8579809,16.343278 L23.8346799,16.4615278 L27.5774146,18.6356619 C27.9056838,18.8263123 28.0489989,19.2155358 27.9440108,19.5655011 L27.9125541,19.6520369 L27.8705316,19.7361111 L25.0683511,24.6195321 C24.8630728,24.9772752 24.4262545,25.1166661 24.0583067,24.9566966 L23.9747549,24.9144296 L20.1157861,22.6731667 L20.0438483,22.7328317 C19.4207876,23.2263496 18.7437963,23.6470128 18.0257849,23.9858699 L17.715592,24.1260598 L17.6146399,24.1674722 L17.6138392,28.1946111 C17.6137609,28.5758948 17.3504175,28.8952636 16.9967666,28.9787305 L16.9065726,28.9945819 L16.8132163,29 L11.2088554,29 C10.79828,29 10.4598854,28.6890418 10.4136226,28.2884215 L10.4082324,28.1944798 L10.4074318,24.4655278 L10.370724,24.4546307 C9.32978087,24.1118209 8.35227857,23.6055504 7.47190416,22.9575977 L7.18208956,22.7363959 L7.12247568,22.6876667 L4.02531143,24.4865694 C3.69936383,24.6759092 3.29609801,24.6084386 3.04695184,24.3465548 L2.98299791,24.2703587 L2.93164888,24.1917105 L0.129468437,19.3082895 C-0.0758281799,18.9505146 0.0226416101,18.5001516 0.344359887,18.2595383 L0.422528908,18.2078731 L3.38997133,16.4832778 L3.36639277,16.3597663 C3.30121739,15.9940834 3.25529627,15.6240072 3.22898743,15.2506737 L3.20922928,14.8762964 L3.20262555,14.5 C3.20262555,14.1334712 3.22137133,13.76925 3.25855504,13.4083657 L3.30187333,13.0486318 L3.32191837,12.9170833 L0.400380927,11.2199042 C0.0721924648,11.0292164 -0.0710607323,10.640038 0.0339245203,10.2901192 L0.0653791016,10.203595 L0.107396754,10.1195321 L2.9095772,5.23611111 C3.11484558,4.87838542 3.55163432,4.73898793 3.91957522,4.89892658 L4.00312579,4.94118603 L6.81103334,6.57091667 L6.86019638,6.52887094 C7.80088641,5.72159778 8.87698006,5.08800312 10.0396995,4.66067465 L10.3589159,4.54926904 L10.4082324,4.53366667 L10.4082324,0.805566303 C10.4082274,0.424223235 10.6715797,0.10476651 11.0252783,0.0212756715 L11.115485,0.00541965836 L11.2088554,0 L16.8132163,0 Z M13.8260298,9.26388889 C10.8474609,9.26388889 8.40667495,11.6859355 8.40667495,14.7013889 C8.40667495,17.7168423 10.8474609,20.1388889 13.8260298,20.1388889 C16.8045987,20.1388889 19.2453846,17.7168423 19.2453846,14.7013889 C19.2453846,11.6859355 16.8045987,9.26388889 13.8260298,9.26388889 Z" id="Combined-Shape"></path>
            </g>
        </g>
    </g>
</svg>