<?xml version="1.0" encoding="UTF-8"?>
<svg width="10px" height="19px" viewBox="0 0 10 19" version="1.1" xmlns="http://www.w3.org/2000/svg" xmlns:xlink="http://www.w3.org/1999/xlink">
    <!-- Generator: Sketch 60.1 (88133) - https://sketch.com -->
    <title>Sort</title>
    <desc>Created with Sketch.</desc>
    <g  stroke="none" stroke-width="1" fill="none" fill-rule="evenodd">
        <g  transform="translate(-1233.000000, -1536.000000)" fill="none" fill-rule="nonzero">
            <path d="M1242.29711,1548 C1242.58774,1548.01557 1242.84383,1548.25504 1242.94971,1548.61025 C1243.05559,1548.96545 1242.9912,1549.36913 1242.78564,1549.63894 L1242.78564,1549.63894 L1238.47512,1554.78183 C1238.20874,1555.07272 1237.82192,1555.07272 1237.55554,1554.78183 L1237.55554,1554.78183 L1233.24502,1549.63894 C1233.10002,1549.45658 1233.01716,1549.20534 1233.01513,1548.94192 C1232.99496,1548.83044 1232.99496,1548.71431 1233.01513,1548.60283 C1233.12079,1548.2437 1233.3825,1548.005 1233.67607,1548 L1233.67607,1548 Z M1238.47512,1536.21817 L1242.78564,1541.36106 C1242.9912,1541.63087 1243.05559,1542.03455 1242.94971,1542.38975 C1242.84383,1542.74496 1242.58774,1542.98443 1242.29711,1543 L1233.67607,1543 C1233.3825,1542.995 1233.12079,1542.7563 1233.01513,1542.39717 C1232.99496,1542.28569 1232.99496,1542.16956 1233.01513,1542.05808 C1233.01716,1541.79466 1233.10002,1541.54342 1233.24502,1541.36106 L1237.55554,1536.21817 C1237.82192,1535.92728 1238.20874,1535.92728 1238.47512,1536.21817 Z" id="Sort"></path>
        </g>
    </g>
</svg>