<?xml version="1.0" encoding="UTF-8"?>
<svg width="26px" height="26px" viewBox="0 0 26 26" version="1.1" xmlns="http://www.w3.org/2000/svg" xmlns:xlink="http://www.w3.org/1999/xlink">
    <!-- Generator: Sketch 60.1 (88133) - https://sketch.com -->
    <title>Target</title>
    <desc>Created with Sketch.</desc>
    <g  stroke="none" stroke-width="1" fill="none" fill-rule="evenodd">
        <g  transform="translate(-1225.000000, -2143.000000)" fill="none" fill-rule="nonzero">
            <g id="Target" transform="translate(1225.000000, 2143.000000)">
                <path d="M16.363913,0.446086679 C16.8591556,0.578786538 17.1530555,1.08783092 17.0203569,1.58306912 C16.8876582,2.07830733 16.3786112,2.37220273 15.8833686,2.23950287 C9.94045718,0.647104562 3.83189323,4.17384934 2.2395091,10.1167078 C0.647124977,16.0595663 4.17392415,22.1680988 10.1168355,23.7604971 C16.0597469,25.3528954 22.1683109,21.8261507 23.760695,15.8832922 C24.3680669,13.6165494 24.2450558,11.2696176 23.4431286,9.11830476 C23.2640472,8.63788697 23.508331,8.10326011 23.9887516,7.92418224 C24.4691723,7.74510437 25.0038044,7.98938864 25.1828858,8.46980642 C26.1185279,10.9798334 26.2622141,13.7212246 25.5541271,16.3638409 C23.6963457,23.2971758 16.5696877,27.4117113 9.63629111,25.5539133 C2.7028945,23.6961153 -1.41170453,16.569494 0.446076947,9.63615911 C2.30385843,2.70282424 9.43051637,-1.41171134 16.363913,0.446086679 Z M15.30307,4.96859626 C15.7959213,5.10991909 16.0808924,5.6240152 15.9395708,6.11686206 C15.7982493,6.60970893 15.2841506,6.89467547 14.7912994,6.75335265 C11.3413406,5.76409288 7.74265003,7.75885868 6.75339908,11.2087867 C5.76414812,14.6587148 7.75894595,18.2573876 11.2089047,19.2466474 C14.6588635,20.2359071 18.2575541,18.2411413 19.246805,14.7912133 C19.6242333,13.4749646 19.576403,12.1055131 19.1305961,10.842639 C18.9599264,10.359169 19.2135035,9.82888687 19.6969763,9.65822077 C20.1804492,9.48755467 20.7107365,9.74113235 20.8814062,10.2246024 C21.4546473,11.8484696 21.5162651,13.6126812 21.0315773,15.3029885 C19.7596832,19.7386103 15.1327954,22.3033091 10.6971341,21.0314037 C6.26147279,19.7594983 3.69673271,15.1326333 4.9686268,10.6970115 C6.24052088,6.26138973 10.8674087,3.69669085 15.30307,4.96859626 Z M22.3566764,3.21196345 C22.6991472,3.54268373 22.732457,4.0730529 22.4503089,4.4424237 L22.3795951,4.52464101 L14.9634943,12.2052424 L15.8979847,13.1066925 C16.1728591,13.3721357 16.1440958,13.7744887 15.8646771,13.9082846 L15.7896311,13.935904 L11.6078108,15.0597478 C11.2500549,15.1558929 10.8612132,14.8119376 10.8795743,14.4511321 L10.8912394,14.3677628 L11.8684551,10.1492683 C11.9434265,9.82562814 12.3291535,9.73752625 12.6222651,9.9520636 L12.69338,10.0120417 L13.6276803,10.9152618 L21.0439986,3.23487048 C21.4001557,2.86605898 21.9878616,2.85580316 22.3566764,3.21196345 Z" id="Combined-Shape"></path>
            </g>
        </g>
    </g>
</svg>