<?xml version="1.0" encoding="UTF-8"?>
<svg width="26px" height="26px" viewBox="0 0 26 26" version="1.1" xmlns="http://www.w3.org/2000/svg" xmlns:xlink="http://www.w3.org/1999/xlink">
    <!-- Generator: Sketch 60.1 (88133) - https://sketch.com -->
    <title>Telephone</title>
    <desc>Created with Sketch.</desc>
    <g  stroke="none" stroke-width="1" fill="none" fill-rule="evenodd">
        <g  transform="translate(-478.000000, -2142.000000)" fill="none" fill-rule="nonzero">
            <g id="Telephone" transform="translate(478.000000, 2142.000000)">
                <path d="M2.18701038,1.12319338 L1.79793586,1.52109804 C-0.130322912,3.55747056 -0.492860831,6.25458466 0.639547229,9.48134746 L0.796364315,9.91578907 L0.918557255,10.3087277 C1.7086386,12.7253007 3.64116552,15.4119737 6.70966399,18.4184149 C9.6687914,21.317697 12.9080868,23.4325942 16.4236923,24.755631 C17.4216372,25.1311901 18.5063924,25.2124948 19.5491708,24.9898922 L19.8672762,24.9146436 C21.124291,24.585899 22.2141915,23.9637857 23.1443488,23.0524398 L23.3032832,22.8870092 L23.4369519,22.7328778 C23.4562118,22.7095116 23.474465,22.6867648 23.4924653,22.6638242 L24.1037294,21.9837164 C24.1383792,21.9450098 24.1722947,21.9054812 24.2053679,21.8652526 C25.5080996,20.2806708 25.279615,17.9400406 23.6950332,16.6373089 L21.5266886,14.8546484 C19.9646035,13.5704118 17.6621836,13.7718061 16.3467806,15.3077385 L15.6905792,16.0739531 L15.5865172,16.2010882 L15.5091257,16.1947048 L15.3007723,16.1695727 C15.2418975,16.1607483 15.1937717,16.1515366 15.1569129,16.1421174 L14.9900821,16.094997 C12.8951559,15.4495617 9.34297161,12.4223282 8.39297095,9.8265477 L8.31116007,9.5813025 L8.46786336,9.50679624 C8.83078623,9.31955243 9.15940391,9.06189904 9.43375571,8.74155171 L10.065068,8.00324321 C11.3677998,6.4186614 11.1393152,4.07803128 9.55473337,2.77529951 L7.20702007,0.845174691 C5.71572173,-0.380865961 3.53380237,-0.260026681 2.18701038,1.12319338 Z M6.02761781,2.27974428 L8.37533111,4.2098691 C9.12800747,4.82866669 9.26874497,5.91581591 8.72247221,6.70227425 L8.60648063,6.85246323 L8.02320394,7.53352718 C7.82013864,7.77063669 7.54913358,7.92534295 7.251371,7.98224599 L7.12224031,8.00060015 C6.58402459,8.0512201 6.20265741,8.5490924 6.29395757,9.08191772 C6.33754906,9.33631654 6.39294783,9.59500056 6.45977835,9.85691633 C7.34445116,13.3240412 11.9049409,17.2279057 14.6970998,17.9414371 C15.0019122,18.0193314 15.4353387,18.0647715 16.0305385,18.0892589 C16.3888346,18.1039997 16.7235949,17.9111142 16.8905298,17.5937404 C16.9502243,17.4802502 17.0207902,17.3757877 17.101131,17.2819776 L17.7573324,16.5157631 C18.4150339,15.7477968 19.5662438,15.6470997 20.3472864,16.289218 L22.515631,18.0718785 C23.3079219,18.7232443 23.4221642,19.8935594 22.7707983,20.6858503 L22.7199362,20.7451301 L22.069996,21.4713678 L21.9409018,21.6252672 L21.8235142,21.7472682 C21.1439581,22.4124005 20.3394368,22.8716199 19.4177433,23.1128542 L19.1408978,23.1783049 C18.4662753,23.3220724 17.7431053,23.2678693 17.0778089,23.0174966 C13.8103876,21.7878596 10.7888638,19.8151429 8.00937979,17.0918712 C5.1349339,14.275558 3.3647486,11.8145786 2.68803889,9.74506767 L2.61571766,9.51151308 C2.58096099,9.39255701 2.53709831,9.26126465 2.48839331,9.13174186 C1.45637998,6.38727556 1.69350275,4.33235036 3.13432927,2.81056467 L3.51761296,2.41875362 C4.19100896,1.72714359 5.28196864,1.66672395 6.02761781,2.27974428 Z" id="Combined-Shape"></path>
            </g>
        </g>
    </g>
</svg>